%TF.GenerationSoftware,KiCad,Pcbnew,(5.1.10)-1*%
%TF.CreationDate,2021-07-29T02:28:10+01:00*%
%TF.ProjectId,STM32_MSB,53544d33-325f-44d5-9342-2e6b69636164,rev?*%
%TF.SameCoordinates,Original*%
%TF.FileFunction,Paste,Top*%
%TF.FilePolarity,Positive*%
%FSLAX46Y46*%
G04 Gerber Fmt 4.6, Leading zero omitted, Abs format (unit mm)*
G04 Created by KiCad (PCBNEW (5.1.10)-1) date 2021-07-29 02:28:10*
%MOMM*%
%LPD*%
G01*
G04 APERTURE LIST*
%ADD10R,2.000000X2.500000*%
%ADD11R,0.500000X2.500000*%
%ADD12R,2.000000X3.800000*%
%ADD13R,2.000000X1.500000*%
%ADD14C,0.100000*%
G04 APERTURE END LIST*
D10*
%TO.C,J1*%
X52400000Y-18600000D03*
X43600000Y-18600000D03*
X52400000Y-24100000D03*
X43600000Y-24100000D03*
D11*
X49600000Y-24100000D03*
X48800000Y-24100000D03*
X48000000Y-24100000D03*
X47200000Y-24100000D03*
X46400000Y-24100000D03*
%TD*%
%TO.C,C1*%
G36*
G01*
X55250000Y-29500000D02*
X54750000Y-29500000D01*
G75*
G02*
X54525000Y-29275000I0J225000D01*
G01*
X54525000Y-28825000D01*
G75*
G02*
X54750000Y-28600000I225000J0D01*
G01*
X55250000Y-28600000D01*
G75*
G02*
X55475000Y-28825000I0J-225000D01*
G01*
X55475000Y-29275000D01*
G75*
G02*
X55250000Y-29500000I-225000J0D01*
G01*
G37*
G36*
G01*
X55250000Y-27950000D02*
X54750000Y-27950000D01*
G75*
G02*
X54525000Y-27725000I0J225000D01*
G01*
X54525000Y-27275000D01*
G75*
G02*
X54750000Y-27050000I225000J0D01*
G01*
X55250000Y-27050000D01*
G75*
G02*
X55475000Y-27275000I0J-225000D01*
G01*
X55475000Y-27725000D01*
G75*
G02*
X55250000Y-27950000I-225000J0D01*
G01*
G37*
%TD*%
%TO.C,C2*%
G36*
G01*
X58550000Y-36750000D02*
X58550000Y-36250000D01*
G75*
G02*
X58775000Y-36025000I225000J0D01*
G01*
X59225000Y-36025000D01*
G75*
G02*
X59450000Y-36250000I0J-225000D01*
G01*
X59450000Y-36750000D01*
G75*
G02*
X59225000Y-36975000I-225000J0D01*
G01*
X58775000Y-36975000D01*
G75*
G02*
X58550000Y-36750000I0J225000D01*
G01*
G37*
G36*
G01*
X57000000Y-36750000D02*
X57000000Y-36250000D01*
G75*
G02*
X57225000Y-36025000I225000J0D01*
G01*
X57675000Y-36025000D01*
G75*
G02*
X57900000Y-36250000I0J-225000D01*
G01*
X57900000Y-36750000D01*
G75*
G02*
X57675000Y-36975000I-225000J0D01*
G01*
X57225000Y-36975000D01*
G75*
G02*
X57000000Y-36750000I0J225000D01*
G01*
G37*
%TD*%
%TO.C,C3*%
G36*
G01*
X34975000Y-40175000D02*
X34975000Y-40675000D01*
G75*
G02*
X34750000Y-40900000I-225000J0D01*
G01*
X34300000Y-40900000D01*
G75*
G02*
X34075000Y-40675000I0J225000D01*
G01*
X34075000Y-40175000D01*
G75*
G02*
X34300000Y-39950000I225000J0D01*
G01*
X34750000Y-39950000D01*
G75*
G02*
X34975000Y-40175000I0J-225000D01*
G01*
G37*
G36*
G01*
X36525000Y-40175000D02*
X36525000Y-40675000D01*
G75*
G02*
X36300000Y-40900000I-225000J0D01*
G01*
X35850000Y-40900000D01*
G75*
G02*
X35625000Y-40675000I0J225000D01*
G01*
X35625000Y-40175000D01*
G75*
G02*
X35850000Y-39950000I225000J0D01*
G01*
X36300000Y-39950000D01*
G75*
G02*
X36525000Y-40175000I0J-225000D01*
G01*
G37*
%TD*%
%TO.C,C4*%
G36*
G01*
X36525000Y-41675000D02*
X36525000Y-42175000D01*
G75*
G02*
X36300000Y-42400000I-225000J0D01*
G01*
X35850000Y-42400000D01*
G75*
G02*
X35625000Y-42175000I0J225000D01*
G01*
X35625000Y-41675000D01*
G75*
G02*
X35850000Y-41450000I225000J0D01*
G01*
X36300000Y-41450000D01*
G75*
G02*
X36525000Y-41675000I0J-225000D01*
G01*
G37*
G36*
G01*
X34975000Y-41675000D02*
X34975000Y-42175000D01*
G75*
G02*
X34750000Y-42400000I-225000J0D01*
G01*
X34300000Y-42400000D01*
G75*
G02*
X34075000Y-42175000I0J225000D01*
G01*
X34075000Y-41675000D01*
G75*
G02*
X34300000Y-41450000I225000J0D01*
G01*
X34750000Y-41450000D01*
G75*
G02*
X34975000Y-41675000I0J-225000D01*
G01*
G37*
%TD*%
%TO.C,C5*%
G36*
G01*
X51250000Y-40175000D02*
X50750000Y-40175000D01*
G75*
G02*
X50525000Y-39950000I0J225000D01*
G01*
X50525000Y-39500000D01*
G75*
G02*
X50750000Y-39275000I225000J0D01*
G01*
X51250000Y-39275000D01*
G75*
G02*
X51475000Y-39500000I0J-225000D01*
G01*
X51475000Y-39950000D01*
G75*
G02*
X51250000Y-40175000I-225000J0D01*
G01*
G37*
G36*
G01*
X51250000Y-41725000D02*
X50750000Y-41725000D01*
G75*
G02*
X50525000Y-41500000I0J225000D01*
G01*
X50525000Y-41050000D01*
G75*
G02*
X50750000Y-40825000I225000J0D01*
G01*
X51250000Y-40825000D01*
G75*
G02*
X51475000Y-41050000I0J-225000D01*
G01*
X51475000Y-41500000D01*
G75*
G02*
X51250000Y-41725000I-225000J0D01*
G01*
G37*
%TD*%
%TO.C,C6*%
G36*
G01*
X45751200Y-33405000D02*
X45751200Y-33905000D01*
G75*
G02*
X45526200Y-34130000I-225000J0D01*
G01*
X45076200Y-34130000D01*
G75*
G02*
X44851200Y-33905000I0J225000D01*
G01*
X44851200Y-33405000D01*
G75*
G02*
X45076200Y-33180000I225000J0D01*
G01*
X45526200Y-33180000D01*
G75*
G02*
X45751200Y-33405000I0J-225000D01*
G01*
G37*
G36*
G01*
X44201200Y-33405000D02*
X44201200Y-33905000D01*
G75*
G02*
X43976200Y-34130000I-225000J0D01*
G01*
X43526200Y-34130000D01*
G75*
G02*
X43301200Y-33905000I0J225000D01*
G01*
X43301200Y-33405000D01*
G75*
G02*
X43526200Y-33180000I225000J0D01*
G01*
X43976200Y-33180000D01*
G75*
G02*
X44201200Y-33405000I0J-225000D01*
G01*
G37*
%TD*%
%TO.C,C7*%
G36*
G01*
X44022200Y-49765800D02*
X44522200Y-49765800D01*
G75*
G02*
X44747200Y-49990800I0J-225000D01*
G01*
X44747200Y-50440800D01*
G75*
G02*
X44522200Y-50665800I-225000J0D01*
G01*
X44022200Y-50665800D01*
G75*
G02*
X43797200Y-50440800I0J225000D01*
G01*
X43797200Y-49990800D01*
G75*
G02*
X44022200Y-49765800I225000J0D01*
G01*
G37*
G36*
G01*
X44022200Y-48215800D02*
X44522200Y-48215800D01*
G75*
G02*
X44747200Y-48440800I0J-225000D01*
G01*
X44747200Y-48890800D01*
G75*
G02*
X44522200Y-49115800I-225000J0D01*
G01*
X44022200Y-49115800D01*
G75*
G02*
X43797200Y-48890800I0J225000D01*
G01*
X43797200Y-48440800D01*
G75*
G02*
X44022200Y-48215800I225000J0D01*
G01*
G37*
%TD*%
%TO.C,C8*%
G36*
G01*
X34311771Y-46686783D02*
X33958217Y-46333229D01*
G75*
G02*
X33958217Y-46015031I159099J159099D01*
G01*
X34276415Y-45696833D01*
G75*
G02*
X34594613Y-45696833I159099J-159099D01*
G01*
X34948167Y-46050387D01*
G75*
G02*
X34948167Y-46368585I-159099J-159099D01*
G01*
X34629969Y-46686783D01*
G75*
G02*
X34311771Y-46686783I-159099J159099D01*
G01*
G37*
G36*
G01*
X35407787Y-45590767D02*
X35054233Y-45237213D01*
G75*
G02*
X35054233Y-44919015I159099J159099D01*
G01*
X35372431Y-44600817D01*
G75*
G02*
X35690629Y-44600817I159099J-159099D01*
G01*
X36044183Y-44954371D01*
G75*
G02*
X36044183Y-45272569I-159099J-159099D01*
G01*
X35725985Y-45590767D01*
G75*
G02*
X35407787Y-45590767I-159099J159099D01*
G01*
G37*
%TD*%
%TO.C,C9*%
G36*
G01*
X38672911Y-51102624D02*
X38319357Y-50749070D01*
G75*
G02*
X38319357Y-50430872I159099J159099D01*
G01*
X38637555Y-50112674D01*
G75*
G02*
X38955753Y-50112674I159099J-159099D01*
G01*
X39309307Y-50466228D01*
G75*
G02*
X39309307Y-50784426I-159099J-159099D01*
G01*
X38991109Y-51102624D01*
G75*
G02*
X38672911Y-51102624I-159099J159099D01*
G01*
G37*
G36*
G01*
X39768927Y-50006608D02*
X39415373Y-49653054D01*
G75*
G02*
X39415373Y-49334856I159099J159099D01*
G01*
X39733571Y-49016658D01*
G75*
G02*
X40051769Y-49016658I159099J-159099D01*
G01*
X40405323Y-49370212D01*
G75*
G02*
X40405323Y-49688410I-159099J-159099D01*
G01*
X40087125Y-50006608D01*
G75*
G02*
X39768927Y-50006608I-159099J159099D01*
G01*
G37*
%TD*%
%TO.C,D1*%
G36*
G01*
X31100000Y-18975000D02*
X31100000Y-18025000D01*
G75*
G02*
X31350000Y-17775000I250000J0D01*
G01*
X31850000Y-17775000D01*
G75*
G02*
X32100000Y-18025000I0J-250000D01*
G01*
X32100000Y-18975000D01*
G75*
G02*
X31850000Y-19225000I-250000J0D01*
G01*
X31350000Y-19225000D01*
G75*
G02*
X31100000Y-18975000I0J250000D01*
G01*
G37*
G36*
G01*
X33000000Y-18975000D02*
X33000000Y-18025000D01*
G75*
G02*
X33250000Y-17775000I250000J0D01*
G01*
X33750000Y-17775000D01*
G75*
G02*
X34000000Y-18025000I0J-250000D01*
G01*
X34000000Y-18975000D01*
G75*
G02*
X33750000Y-19225000I-250000J0D01*
G01*
X33250000Y-19225000D01*
G75*
G02*
X33000000Y-18975000I0J250000D01*
G01*
G37*
%TD*%
%TO.C,R1*%
G36*
G01*
X47529800Y-31720200D02*
X47529800Y-31170200D01*
G75*
G02*
X47729800Y-30970200I200000J0D01*
G01*
X48129800Y-30970200D01*
G75*
G02*
X48329800Y-31170200I0J-200000D01*
G01*
X48329800Y-31720200D01*
G75*
G02*
X48129800Y-31920200I-200000J0D01*
G01*
X47729800Y-31920200D01*
G75*
G02*
X47529800Y-31720200I0J200000D01*
G01*
G37*
G36*
G01*
X45879800Y-31720200D02*
X45879800Y-31170200D01*
G75*
G02*
X46079800Y-30970200I200000J0D01*
G01*
X46479800Y-30970200D01*
G75*
G02*
X46679800Y-31170200I0J-200000D01*
G01*
X46679800Y-31720200D01*
G75*
G02*
X46479800Y-31920200I-200000J0D01*
G01*
X46079800Y-31920200D01*
G75*
G02*
X45879800Y-31720200I0J200000D01*
G01*
G37*
%TD*%
%TO.C,R2*%
G36*
G01*
X29900000Y-18225000D02*
X29900000Y-18775000D01*
G75*
G02*
X29700000Y-18975000I-200000J0D01*
G01*
X29300000Y-18975000D01*
G75*
G02*
X29100000Y-18775000I0J200000D01*
G01*
X29100000Y-18225000D01*
G75*
G02*
X29300000Y-18025000I200000J0D01*
G01*
X29700000Y-18025000D01*
G75*
G02*
X29900000Y-18225000I0J-200000D01*
G01*
G37*
G36*
G01*
X28250000Y-18225000D02*
X28250000Y-18775000D01*
G75*
G02*
X28050000Y-18975000I-200000J0D01*
G01*
X27650000Y-18975000D01*
G75*
G02*
X27450000Y-18775000I0J200000D01*
G01*
X27450000Y-18225000D01*
G75*
G02*
X27650000Y-18025000I200000J0D01*
G01*
X28050000Y-18025000D01*
G75*
G02*
X28250000Y-18225000I0J-200000D01*
G01*
G37*
%TD*%
%TO.C,R3*%
G36*
G01*
X37001400Y-36555000D02*
X37001400Y-37105000D01*
G75*
G02*
X36801400Y-37305000I-200000J0D01*
G01*
X36401400Y-37305000D01*
G75*
G02*
X36201400Y-37105000I0J200000D01*
G01*
X36201400Y-36555000D01*
G75*
G02*
X36401400Y-36355000I200000J0D01*
G01*
X36801400Y-36355000D01*
G75*
G02*
X37001400Y-36555000I0J-200000D01*
G01*
G37*
G36*
G01*
X35351400Y-36555000D02*
X35351400Y-37105000D01*
G75*
G02*
X35151400Y-37305000I-200000J0D01*
G01*
X34751400Y-37305000D01*
G75*
G02*
X34551400Y-37105000I0J200000D01*
G01*
X34551400Y-36555000D01*
G75*
G02*
X34751400Y-36355000I200000J0D01*
G01*
X35151400Y-36355000D01*
G75*
G02*
X35351400Y-36555000I0J-200000D01*
G01*
G37*
%TD*%
%TO.C,R4*%
G36*
G01*
X39433051Y-46594818D02*
X39821960Y-46205909D01*
G75*
G02*
X40104802Y-46205909I141421J-141421D01*
G01*
X40387645Y-46488752D01*
G75*
G02*
X40387645Y-46771594I-141421J-141421D01*
G01*
X39998736Y-47160503D01*
G75*
G02*
X39715894Y-47160503I-141421J141421D01*
G01*
X39433051Y-46877660D01*
G75*
G02*
X39433051Y-46594818I141421J141421D01*
G01*
G37*
G36*
G01*
X38266325Y-45428092D02*
X38655234Y-45039183D01*
G75*
G02*
X38938076Y-45039183I141421J-141421D01*
G01*
X39220919Y-45322026D01*
G75*
G02*
X39220919Y-45604868I-141421J-141421D01*
G01*
X38832010Y-45993777D01*
G75*
G02*
X38549168Y-45993777I-141421J141421D01*
G01*
X38266325Y-45710934D01*
G75*
G02*
X38266325Y-45428092I141421J141421D01*
G01*
G37*
%TD*%
%TO.C,R5*%
G36*
G01*
X28725000Y-61400000D02*
X28725000Y-60850000D01*
G75*
G02*
X28925000Y-60650000I200000J0D01*
G01*
X29325000Y-60650000D01*
G75*
G02*
X29525000Y-60850000I0J-200000D01*
G01*
X29525000Y-61400000D01*
G75*
G02*
X29325000Y-61600000I-200000J0D01*
G01*
X28925000Y-61600000D01*
G75*
G02*
X28725000Y-61400000I0J200000D01*
G01*
G37*
G36*
G01*
X30375000Y-61400000D02*
X30375000Y-60850000D01*
G75*
G02*
X30575000Y-60650000I200000J0D01*
G01*
X30975000Y-60650000D01*
G75*
G02*
X31175000Y-60850000I0J-200000D01*
G01*
X31175000Y-61400000D01*
G75*
G02*
X30975000Y-61600000I-200000J0D01*
G01*
X30575000Y-61600000D01*
G75*
G02*
X30375000Y-61400000I0J200000D01*
G01*
G37*
%TD*%
%TO.C,R6*%
G36*
G01*
X33875000Y-60875000D02*
X33875000Y-61425000D01*
G75*
G02*
X33675000Y-61625000I-200000J0D01*
G01*
X33275000Y-61625000D01*
G75*
G02*
X33075000Y-61425000I0J200000D01*
G01*
X33075000Y-60875000D01*
G75*
G02*
X33275000Y-60675000I200000J0D01*
G01*
X33675000Y-60675000D01*
G75*
G02*
X33875000Y-60875000I0J-200000D01*
G01*
G37*
G36*
G01*
X35525000Y-60875000D02*
X35525000Y-61425000D01*
G75*
G02*
X35325000Y-61625000I-200000J0D01*
G01*
X34925000Y-61625000D01*
G75*
G02*
X34725000Y-61425000I0J200000D01*
G01*
X34725000Y-60875000D01*
G75*
G02*
X34925000Y-60675000I200000J0D01*
G01*
X35325000Y-60675000D01*
G75*
G02*
X35525000Y-60875000I0J-200000D01*
G01*
G37*
%TD*%
D12*
%TO.C,U1*%
X64150000Y-31500000D03*
D13*
X57850000Y-31500000D03*
X57850000Y-33800000D03*
X57850000Y-29200000D03*
%TD*%
%TO.C,U2*%
G36*
G01*
X38523557Y-42306757D02*
X38417491Y-42200691D01*
G75*
G02*
X38417491Y-42094625I53033J53033D01*
G01*
X39354407Y-41157709D01*
G75*
G02*
X39460473Y-41157709I53033J-53033D01*
G01*
X39566539Y-41263775D01*
G75*
G02*
X39566539Y-41369841I-53033J-53033D01*
G01*
X38629623Y-42306757D01*
G75*
G02*
X38523557Y-42306757I-53033J53033D01*
G01*
G37*
G36*
G01*
X38877111Y-42660311D02*
X38771045Y-42554245D01*
G75*
G02*
X38771045Y-42448179I53033J53033D01*
G01*
X39707961Y-41511263D01*
G75*
G02*
X39814027Y-41511263I53033J-53033D01*
G01*
X39920093Y-41617329D01*
G75*
G02*
X39920093Y-41723395I-53033J-53033D01*
G01*
X38983177Y-42660311D01*
G75*
G02*
X38877111Y-42660311I-53033J53033D01*
G01*
G37*
G36*
G01*
X39230664Y-43013864D02*
X39124598Y-42907798D01*
G75*
G02*
X39124598Y-42801732I53033J53033D01*
G01*
X40061514Y-41864816D01*
G75*
G02*
X40167580Y-41864816I53033J-53033D01*
G01*
X40273646Y-41970882D01*
G75*
G02*
X40273646Y-42076948I-53033J-53033D01*
G01*
X39336730Y-43013864D01*
G75*
G02*
X39230664Y-43013864I-53033J53033D01*
G01*
G37*
G36*
G01*
X39584218Y-43367418D02*
X39478152Y-43261352D01*
G75*
G02*
X39478152Y-43155286I53033J53033D01*
G01*
X40415068Y-42218370D01*
G75*
G02*
X40521134Y-42218370I53033J-53033D01*
G01*
X40627200Y-42324436D01*
G75*
G02*
X40627200Y-42430502I-53033J-53033D01*
G01*
X39690284Y-43367418D01*
G75*
G02*
X39584218Y-43367418I-53033J53033D01*
G01*
G37*
G36*
G01*
X39937771Y-43720971D02*
X39831705Y-43614905D01*
G75*
G02*
X39831705Y-43508839I53033J53033D01*
G01*
X40768621Y-42571923D01*
G75*
G02*
X40874687Y-42571923I53033J-53033D01*
G01*
X40980753Y-42677989D01*
G75*
G02*
X40980753Y-42784055I-53033J-53033D01*
G01*
X40043837Y-43720971D01*
G75*
G02*
X39937771Y-43720971I-53033J53033D01*
G01*
G37*
G36*
G01*
X40291324Y-44074524D02*
X40185258Y-43968458D01*
G75*
G02*
X40185258Y-43862392I53033J53033D01*
G01*
X41122174Y-42925476D01*
G75*
G02*
X41228240Y-42925476I53033J-53033D01*
G01*
X41334306Y-43031542D01*
G75*
G02*
X41334306Y-43137608I-53033J-53033D01*
G01*
X40397390Y-44074524D01*
G75*
G02*
X40291324Y-44074524I-53033J53033D01*
G01*
G37*
G36*
G01*
X40644878Y-44428078D02*
X40538812Y-44322012D01*
G75*
G02*
X40538812Y-44215946I53033J53033D01*
G01*
X41475728Y-43279030D01*
G75*
G02*
X41581794Y-43279030I53033J-53033D01*
G01*
X41687860Y-43385096D01*
G75*
G02*
X41687860Y-43491162I-53033J-53033D01*
G01*
X40750944Y-44428078D01*
G75*
G02*
X40644878Y-44428078I-53033J53033D01*
G01*
G37*
G36*
G01*
X40998431Y-44781631D02*
X40892365Y-44675565D01*
G75*
G02*
X40892365Y-44569499I53033J53033D01*
G01*
X41829281Y-43632583D01*
G75*
G02*
X41935347Y-43632583I53033J-53033D01*
G01*
X42041413Y-43738649D01*
G75*
G02*
X42041413Y-43844715I-53033J-53033D01*
G01*
X41104497Y-44781631D01*
G75*
G02*
X40998431Y-44781631I-53033J53033D01*
G01*
G37*
G36*
G01*
X41351984Y-45135184D02*
X41245918Y-45029118D01*
G75*
G02*
X41245918Y-44923052I53033J53033D01*
G01*
X42182834Y-43986136D01*
G75*
G02*
X42288900Y-43986136I53033J-53033D01*
G01*
X42394966Y-44092202D01*
G75*
G02*
X42394966Y-44198268I-53033J-53033D01*
G01*
X41458050Y-45135184D01*
G75*
G02*
X41351984Y-45135184I-53033J53033D01*
G01*
G37*
G36*
G01*
X41705538Y-45488738D02*
X41599472Y-45382672D01*
G75*
G02*
X41599472Y-45276606I53033J53033D01*
G01*
X42536388Y-44339690D01*
G75*
G02*
X42642454Y-44339690I53033J-53033D01*
G01*
X42748520Y-44445756D01*
G75*
G02*
X42748520Y-44551822I-53033J-53033D01*
G01*
X41811604Y-45488738D01*
G75*
G02*
X41705538Y-45488738I-53033J53033D01*
G01*
G37*
G36*
G01*
X42059091Y-45842291D02*
X41953025Y-45736225D01*
G75*
G02*
X41953025Y-45630159I53033J53033D01*
G01*
X42889941Y-44693243D01*
G75*
G02*
X42996007Y-44693243I53033J-53033D01*
G01*
X43102073Y-44799309D01*
G75*
G02*
X43102073Y-44905375I-53033J-53033D01*
G01*
X42165157Y-45842291D01*
G75*
G02*
X42059091Y-45842291I-53033J53033D01*
G01*
G37*
G36*
G01*
X42412645Y-46195845D02*
X42306579Y-46089779D01*
G75*
G02*
X42306579Y-45983713I53033J53033D01*
G01*
X43243495Y-45046797D01*
G75*
G02*
X43349561Y-45046797I53033J-53033D01*
G01*
X43455627Y-45152863D01*
G75*
G02*
X43455627Y-45258929I-53033J-53033D01*
G01*
X42518711Y-46195845D01*
G75*
G02*
X42412645Y-46195845I-53033J53033D01*
G01*
G37*
G36*
G01*
X45241071Y-46195845D02*
X44304155Y-45258929D01*
G75*
G02*
X44304155Y-45152863I53033J53033D01*
G01*
X44410221Y-45046797D01*
G75*
G02*
X44516287Y-45046797I53033J-53033D01*
G01*
X45453203Y-45983713D01*
G75*
G02*
X45453203Y-46089779I-53033J-53033D01*
G01*
X45347137Y-46195845D01*
G75*
G02*
X45241071Y-46195845I-53033J53033D01*
G01*
G37*
G36*
G01*
X45594625Y-45842291D02*
X44657709Y-44905375D01*
G75*
G02*
X44657709Y-44799309I53033J53033D01*
G01*
X44763775Y-44693243D01*
G75*
G02*
X44869841Y-44693243I53033J-53033D01*
G01*
X45806757Y-45630159D01*
G75*
G02*
X45806757Y-45736225I-53033J-53033D01*
G01*
X45700691Y-45842291D01*
G75*
G02*
X45594625Y-45842291I-53033J53033D01*
G01*
G37*
G36*
G01*
X45948178Y-45488738D02*
X45011262Y-44551822D01*
G75*
G02*
X45011262Y-44445756I53033J53033D01*
G01*
X45117328Y-44339690D01*
G75*
G02*
X45223394Y-44339690I53033J-53033D01*
G01*
X46160310Y-45276606D01*
G75*
G02*
X46160310Y-45382672I-53033J-53033D01*
G01*
X46054244Y-45488738D01*
G75*
G02*
X45948178Y-45488738I-53033J53033D01*
G01*
G37*
G36*
G01*
X46301732Y-45135184D02*
X45364816Y-44198268D01*
G75*
G02*
X45364816Y-44092202I53033J53033D01*
G01*
X45470882Y-43986136D01*
G75*
G02*
X45576948Y-43986136I53033J-53033D01*
G01*
X46513864Y-44923052D01*
G75*
G02*
X46513864Y-45029118I-53033J-53033D01*
G01*
X46407798Y-45135184D01*
G75*
G02*
X46301732Y-45135184I-53033J53033D01*
G01*
G37*
G36*
G01*
X46655285Y-44781631D02*
X45718369Y-43844715D01*
G75*
G02*
X45718369Y-43738649I53033J53033D01*
G01*
X45824435Y-43632583D01*
G75*
G02*
X45930501Y-43632583I53033J-53033D01*
G01*
X46867417Y-44569499D01*
G75*
G02*
X46867417Y-44675565I-53033J-53033D01*
G01*
X46761351Y-44781631D01*
G75*
G02*
X46655285Y-44781631I-53033J53033D01*
G01*
G37*
G36*
G01*
X47008838Y-44428078D02*
X46071922Y-43491162D01*
G75*
G02*
X46071922Y-43385096I53033J53033D01*
G01*
X46177988Y-43279030D01*
G75*
G02*
X46284054Y-43279030I53033J-53033D01*
G01*
X47220970Y-44215946D01*
G75*
G02*
X47220970Y-44322012I-53033J-53033D01*
G01*
X47114904Y-44428078D01*
G75*
G02*
X47008838Y-44428078I-53033J53033D01*
G01*
G37*
G36*
G01*
X47362392Y-44074524D02*
X46425476Y-43137608D01*
G75*
G02*
X46425476Y-43031542I53033J53033D01*
G01*
X46531542Y-42925476D01*
G75*
G02*
X46637608Y-42925476I53033J-53033D01*
G01*
X47574524Y-43862392D01*
G75*
G02*
X47574524Y-43968458I-53033J-53033D01*
G01*
X47468458Y-44074524D01*
G75*
G02*
X47362392Y-44074524I-53033J53033D01*
G01*
G37*
G36*
G01*
X47715945Y-43720971D02*
X46779029Y-42784055D01*
G75*
G02*
X46779029Y-42677989I53033J53033D01*
G01*
X46885095Y-42571923D01*
G75*
G02*
X46991161Y-42571923I53033J-53033D01*
G01*
X47928077Y-43508839D01*
G75*
G02*
X47928077Y-43614905I-53033J-53033D01*
G01*
X47822011Y-43720971D01*
G75*
G02*
X47715945Y-43720971I-53033J53033D01*
G01*
G37*
G36*
G01*
X48069498Y-43367418D02*
X47132582Y-42430502D01*
G75*
G02*
X47132582Y-42324436I53033J53033D01*
G01*
X47238648Y-42218370D01*
G75*
G02*
X47344714Y-42218370I53033J-53033D01*
G01*
X48281630Y-43155286D01*
G75*
G02*
X48281630Y-43261352I-53033J-53033D01*
G01*
X48175564Y-43367418D01*
G75*
G02*
X48069498Y-43367418I-53033J53033D01*
G01*
G37*
G36*
G01*
X48423052Y-43013864D02*
X47486136Y-42076948D01*
G75*
G02*
X47486136Y-41970882I53033J53033D01*
G01*
X47592202Y-41864816D01*
G75*
G02*
X47698268Y-41864816I53033J-53033D01*
G01*
X48635184Y-42801732D01*
G75*
G02*
X48635184Y-42907798I-53033J-53033D01*
G01*
X48529118Y-43013864D01*
G75*
G02*
X48423052Y-43013864I-53033J53033D01*
G01*
G37*
G36*
G01*
X48776605Y-42660311D02*
X47839689Y-41723395D01*
G75*
G02*
X47839689Y-41617329I53033J53033D01*
G01*
X47945755Y-41511263D01*
G75*
G02*
X48051821Y-41511263I53033J-53033D01*
G01*
X48988737Y-42448179D01*
G75*
G02*
X48988737Y-42554245I-53033J-53033D01*
G01*
X48882671Y-42660311D01*
G75*
G02*
X48776605Y-42660311I-53033J53033D01*
G01*
G37*
G36*
G01*
X49130159Y-42306757D02*
X48193243Y-41369841D01*
G75*
G02*
X48193243Y-41263775I53033J53033D01*
G01*
X48299309Y-41157709D01*
G75*
G02*
X48405375Y-41157709I53033J-53033D01*
G01*
X49342291Y-42094625D01*
G75*
G02*
X49342291Y-42200691I-53033J-53033D01*
G01*
X49236225Y-42306757D01*
G75*
G02*
X49130159Y-42306757I-53033J53033D01*
G01*
G37*
G36*
G01*
X48299309Y-40309181D02*
X48193243Y-40203115D01*
G75*
G02*
X48193243Y-40097049I53033J53033D01*
G01*
X49130159Y-39160133D01*
G75*
G02*
X49236225Y-39160133I53033J-53033D01*
G01*
X49342291Y-39266199D01*
G75*
G02*
X49342291Y-39372265I-53033J-53033D01*
G01*
X48405375Y-40309181D01*
G75*
G02*
X48299309Y-40309181I-53033J53033D01*
G01*
G37*
G36*
G01*
X47945755Y-39955627D02*
X47839689Y-39849561D01*
G75*
G02*
X47839689Y-39743495I53033J53033D01*
G01*
X48776605Y-38806579D01*
G75*
G02*
X48882671Y-38806579I53033J-53033D01*
G01*
X48988737Y-38912645D01*
G75*
G02*
X48988737Y-39018711I-53033J-53033D01*
G01*
X48051821Y-39955627D01*
G75*
G02*
X47945755Y-39955627I-53033J53033D01*
G01*
G37*
G36*
G01*
X47592202Y-39602074D02*
X47486136Y-39496008D01*
G75*
G02*
X47486136Y-39389942I53033J53033D01*
G01*
X48423052Y-38453026D01*
G75*
G02*
X48529118Y-38453026I53033J-53033D01*
G01*
X48635184Y-38559092D01*
G75*
G02*
X48635184Y-38665158I-53033J-53033D01*
G01*
X47698268Y-39602074D01*
G75*
G02*
X47592202Y-39602074I-53033J53033D01*
G01*
G37*
G36*
G01*
X47238648Y-39248520D02*
X47132582Y-39142454D01*
G75*
G02*
X47132582Y-39036388I53033J53033D01*
G01*
X48069498Y-38099472D01*
G75*
G02*
X48175564Y-38099472I53033J-53033D01*
G01*
X48281630Y-38205538D01*
G75*
G02*
X48281630Y-38311604I-53033J-53033D01*
G01*
X47344714Y-39248520D01*
G75*
G02*
X47238648Y-39248520I-53033J53033D01*
G01*
G37*
G36*
G01*
X46885095Y-38894967D02*
X46779029Y-38788901D01*
G75*
G02*
X46779029Y-38682835I53033J53033D01*
G01*
X47715945Y-37745919D01*
G75*
G02*
X47822011Y-37745919I53033J-53033D01*
G01*
X47928077Y-37851985D01*
G75*
G02*
X47928077Y-37958051I-53033J-53033D01*
G01*
X46991161Y-38894967D01*
G75*
G02*
X46885095Y-38894967I-53033J53033D01*
G01*
G37*
G36*
G01*
X46531542Y-38541414D02*
X46425476Y-38435348D01*
G75*
G02*
X46425476Y-38329282I53033J53033D01*
G01*
X47362392Y-37392366D01*
G75*
G02*
X47468458Y-37392366I53033J-53033D01*
G01*
X47574524Y-37498432D01*
G75*
G02*
X47574524Y-37604498I-53033J-53033D01*
G01*
X46637608Y-38541414D01*
G75*
G02*
X46531542Y-38541414I-53033J53033D01*
G01*
G37*
G36*
G01*
X46177988Y-38187860D02*
X46071922Y-38081794D01*
G75*
G02*
X46071922Y-37975728I53033J53033D01*
G01*
X47008838Y-37038812D01*
G75*
G02*
X47114904Y-37038812I53033J-53033D01*
G01*
X47220970Y-37144878D01*
G75*
G02*
X47220970Y-37250944I-53033J-53033D01*
G01*
X46284054Y-38187860D01*
G75*
G02*
X46177988Y-38187860I-53033J53033D01*
G01*
G37*
G36*
G01*
X45824435Y-37834307D02*
X45718369Y-37728241D01*
G75*
G02*
X45718369Y-37622175I53033J53033D01*
G01*
X46655285Y-36685259D01*
G75*
G02*
X46761351Y-36685259I53033J-53033D01*
G01*
X46867417Y-36791325D01*
G75*
G02*
X46867417Y-36897391I-53033J-53033D01*
G01*
X45930501Y-37834307D01*
G75*
G02*
X45824435Y-37834307I-53033J53033D01*
G01*
G37*
G36*
G01*
X45470882Y-37480754D02*
X45364816Y-37374688D01*
G75*
G02*
X45364816Y-37268622I53033J53033D01*
G01*
X46301732Y-36331706D01*
G75*
G02*
X46407798Y-36331706I53033J-53033D01*
G01*
X46513864Y-36437772D01*
G75*
G02*
X46513864Y-36543838I-53033J-53033D01*
G01*
X45576948Y-37480754D01*
G75*
G02*
X45470882Y-37480754I-53033J53033D01*
G01*
G37*
G36*
G01*
X45117328Y-37127200D02*
X45011262Y-37021134D01*
G75*
G02*
X45011262Y-36915068I53033J53033D01*
G01*
X45948178Y-35978152D01*
G75*
G02*
X46054244Y-35978152I53033J-53033D01*
G01*
X46160310Y-36084218D01*
G75*
G02*
X46160310Y-36190284I-53033J-53033D01*
G01*
X45223394Y-37127200D01*
G75*
G02*
X45117328Y-37127200I-53033J53033D01*
G01*
G37*
G36*
G01*
X44763775Y-36773647D02*
X44657709Y-36667581D01*
G75*
G02*
X44657709Y-36561515I53033J53033D01*
G01*
X45594625Y-35624599D01*
G75*
G02*
X45700691Y-35624599I53033J-53033D01*
G01*
X45806757Y-35730665D01*
G75*
G02*
X45806757Y-35836731I-53033J-53033D01*
G01*
X44869841Y-36773647D01*
G75*
G02*
X44763775Y-36773647I-53033J53033D01*
G01*
G37*
G36*
G01*
X44410221Y-36420093D02*
X44304155Y-36314027D01*
G75*
G02*
X44304155Y-36207961I53033J53033D01*
G01*
X45241071Y-35271045D01*
G75*
G02*
X45347137Y-35271045I53033J-53033D01*
G01*
X45453203Y-35377111D01*
G75*
G02*
X45453203Y-35483177I-53033J-53033D01*
G01*
X44516287Y-36420093D01*
G75*
G02*
X44410221Y-36420093I-53033J53033D01*
G01*
G37*
G36*
G01*
X43243495Y-36420093D02*
X42306579Y-35483177D01*
G75*
G02*
X42306579Y-35377111I53033J53033D01*
G01*
X42412645Y-35271045D01*
G75*
G02*
X42518711Y-35271045I53033J-53033D01*
G01*
X43455627Y-36207961D01*
G75*
G02*
X43455627Y-36314027I-53033J-53033D01*
G01*
X43349561Y-36420093D01*
G75*
G02*
X43243495Y-36420093I-53033J53033D01*
G01*
G37*
G36*
G01*
X42889941Y-36773647D02*
X41953025Y-35836731D01*
G75*
G02*
X41953025Y-35730665I53033J53033D01*
G01*
X42059091Y-35624599D01*
G75*
G02*
X42165157Y-35624599I53033J-53033D01*
G01*
X43102073Y-36561515D01*
G75*
G02*
X43102073Y-36667581I-53033J-53033D01*
G01*
X42996007Y-36773647D01*
G75*
G02*
X42889941Y-36773647I-53033J53033D01*
G01*
G37*
G36*
G01*
X42536388Y-37127200D02*
X41599472Y-36190284D01*
G75*
G02*
X41599472Y-36084218I53033J53033D01*
G01*
X41705538Y-35978152D01*
G75*
G02*
X41811604Y-35978152I53033J-53033D01*
G01*
X42748520Y-36915068D01*
G75*
G02*
X42748520Y-37021134I-53033J-53033D01*
G01*
X42642454Y-37127200D01*
G75*
G02*
X42536388Y-37127200I-53033J53033D01*
G01*
G37*
G36*
G01*
X42182834Y-37480754D02*
X41245918Y-36543838D01*
G75*
G02*
X41245918Y-36437772I53033J53033D01*
G01*
X41351984Y-36331706D01*
G75*
G02*
X41458050Y-36331706I53033J-53033D01*
G01*
X42394966Y-37268622D01*
G75*
G02*
X42394966Y-37374688I-53033J-53033D01*
G01*
X42288900Y-37480754D01*
G75*
G02*
X42182834Y-37480754I-53033J53033D01*
G01*
G37*
G36*
G01*
X41829281Y-37834307D02*
X40892365Y-36897391D01*
G75*
G02*
X40892365Y-36791325I53033J53033D01*
G01*
X40998431Y-36685259D01*
G75*
G02*
X41104497Y-36685259I53033J-53033D01*
G01*
X42041413Y-37622175D01*
G75*
G02*
X42041413Y-37728241I-53033J-53033D01*
G01*
X41935347Y-37834307D01*
G75*
G02*
X41829281Y-37834307I-53033J53033D01*
G01*
G37*
G36*
G01*
X41475728Y-38187860D02*
X40538812Y-37250944D01*
G75*
G02*
X40538812Y-37144878I53033J53033D01*
G01*
X40644878Y-37038812D01*
G75*
G02*
X40750944Y-37038812I53033J-53033D01*
G01*
X41687860Y-37975728D01*
G75*
G02*
X41687860Y-38081794I-53033J-53033D01*
G01*
X41581794Y-38187860D01*
G75*
G02*
X41475728Y-38187860I-53033J53033D01*
G01*
G37*
G36*
G01*
X41122174Y-38541414D02*
X40185258Y-37604498D01*
G75*
G02*
X40185258Y-37498432I53033J53033D01*
G01*
X40291324Y-37392366D01*
G75*
G02*
X40397390Y-37392366I53033J-53033D01*
G01*
X41334306Y-38329282D01*
G75*
G02*
X41334306Y-38435348I-53033J-53033D01*
G01*
X41228240Y-38541414D01*
G75*
G02*
X41122174Y-38541414I-53033J53033D01*
G01*
G37*
G36*
G01*
X40768621Y-38894967D02*
X39831705Y-37958051D01*
G75*
G02*
X39831705Y-37851985I53033J53033D01*
G01*
X39937771Y-37745919D01*
G75*
G02*
X40043837Y-37745919I53033J-53033D01*
G01*
X40980753Y-38682835D01*
G75*
G02*
X40980753Y-38788901I-53033J-53033D01*
G01*
X40874687Y-38894967D01*
G75*
G02*
X40768621Y-38894967I-53033J53033D01*
G01*
G37*
G36*
G01*
X40415068Y-39248520D02*
X39478152Y-38311604D01*
G75*
G02*
X39478152Y-38205538I53033J53033D01*
G01*
X39584218Y-38099472D01*
G75*
G02*
X39690284Y-38099472I53033J-53033D01*
G01*
X40627200Y-39036388D01*
G75*
G02*
X40627200Y-39142454I-53033J-53033D01*
G01*
X40521134Y-39248520D01*
G75*
G02*
X40415068Y-39248520I-53033J53033D01*
G01*
G37*
G36*
G01*
X40061514Y-39602074D02*
X39124598Y-38665158D01*
G75*
G02*
X39124598Y-38559092I53033J53033D01*
G01*
X39230664Y-38453026D01*
G75*
G02*
X39336730Y-38453026I53033J-53033D01*
G01*
X40273646Y-39389942D01*
G75*
G02*
X40273646Y-39496008I-53033J-53033D01*
G01*
X40167580Y-39602074D01*
G75*
G02*
X40061514Y-39602074I-53033J53033D01*
G01*
G37*
G36*
G01*
X39707961Y-39955627D02*
X38771045Y-39018711D01*
G75*
G02*
X38771045Y-38912645I53033J53033D01*
G01*
X38877111Y-38806579D01*
G75*
G02*
X38983177Y-38806579I53033J-53033D01*
G01*
X39920093Y-39743495D01*
G75*
G02*
X39920093Y-39849561I-53033J-53033D01*
G01*
X39814027Y-39955627D01*
G75*
G02*
X39707961Y-39955627I-53033J53033D01*
G01*
G37*
G36*
G01*
X39354407Y-40309181D02*
X38417491Y-39372265D01*
G75*
G02*
X38417491Y-39266199I53033J53033D01*
G01*
X38523557Y-39160133D01*
G75*
G02*
X38629623Y-39160133I53033J-53033D01*
G01*
X39566539Y-40097049D01*
G75*
G02*
X39566539Y-40203115I-53033J-53033D01*
G01*
X39460473Y-40309181D01*
G75*
G02*
X39354407Y-40309181I-53033J53033D01*
G01*
G37*
%TD*%
D14*
%TO.C,Y1*%
G36*
X34960600Y-47531734D02*
G01*
X35809128Y-46683206D01*
X36799078Y-47673156D01*
X35950550Y-48521684D01*
X34960600Y-47531734D01*
G37*
G36*
X36516235Y-49087369D02*
G01*
X37364763Y-48238841D01*
X38354713Y-49228791D01*
X37506185Y-50077319D01*
X36516235Y-49087369D01*
G37*
G36*
X37718316Y-47885288D02*
G01*
X38566844Y-47036760D01*
X39556794Y-48026710D01*
X38708266Y-48875238D01*
X37718316Y-47885288D01*
G37*
G36*
X36162681Y-46329653D02*
G01*
X37011209Y-45481125D01*
X38001159Y-46471075D01*
X37152631Y-47319603D01*
X36162681Y-46329653D01*
G37*
%TD*%
M02*
