M48
; DRILL file {KiCad (5.1.10)-1} date 07/29/21 02:28:01
; FORMAT={-:-/ absolute / metric / decimal}
; #@! TF.CreationDate,2021-07-29T02:28:01+01:00
; #@! TF.GenerationSoftware,Kicad,Pcbnew,(5.1.10)-1
FMAT,2
METRIC
T1C0.400
T2C1.000
T3C0.900
%
G90
G05
T1
X26.492Y-40.97
X26.925Y-60.75
X29.175Y-44.35
X29.5Y-58.35
X30.575Y-43.1
X30.988Y-31.09
X31.25Y-58.8
X31.925Y-42.075
X32.325Y-37.5
X32.625Y-58.125
X33.275Y-41.975
X33.925Y-57.125
X34.35Y-44.598
X35.687Y-32.893
X36.1Y-50.7
X37.0Y-61.2
X37.025Y-39.55
X37.45Y-40.675
X40.35Y-45.3
X41.224Y-41.529
X42.425Y-61.2
X42.7Y-26.825
X43.15Y-37.975
X43.15Y-43.325
X43.65Y-34.675
X43.9Y-52.45
X43.975Y-26.825
X44.044Y-32.207
X45.2Y-26.825
X45.288Y-38.262
X45.325Y-47.675
X46.375Y-26.825
X46.914Y-33.731
X48.9Y-48.375
X49.225Y-50.6
X49.8Y-49.375
X50.4Y-51.65
X50.725Y-50.375
X50.975Y-43.425
X51.525Y-52.825
X51.8Y-51.375
X52.125Y-34.6
X52.8Y-53.975
X52.825Y-52.475
X53.925Y-53.4
X54.075Y-55.15
X55.475Y-33.1
X55.5Y-32.025
X55.525Y-31.075
X56.125Y-43.85
X56.15Y-55.225
X57.725Y-43.875
X57.725Y-57.15
X59.775Y-32.7
X59.825Y-33.85
X60.475Y-37.175
T2
X23.96Y-43.5
X23.96Y-46.04
X23.96Y-48.58
X23.96Y-51.12
X23.96Y-53.66
X23.96Y-56.2
X23.96Y-58.74
X25.88Y-22.96
X25.88Y-25.5
X26.5Y-43.5
X26.5Y-46.04
X26.5Y-48.58
X26.5Y-51.12
X26.5Y-53.66
X26.5Y-56.2
X26.5Y-58.74
X28.42Y-22.96
X28.42Y-25.5
X30.96Y-22.96
X30.96Y-25.5
X30.96Y-64.0
X33.5Y-22.96
X33.5Y-25.5
X33.5Y-64.0
X36.04Y-22.96
X36.04Y-25.5
X38.46Y-64.0
X41.0Y-64.0
X45.5Y-64.0
X48.04Y-64.0
X50.58Y-64.0
X56.46Y-64.0
X58.0Y-24.5
X59.0Y-64.0
X60.54Y-24.5
X61.46Y-43.5
X61.46Y-46.04
X61.46Y-48.58
X61.46Y-51.12
X61.46Y-53.66
X61.46Y-56.2
X61.46Y-58.74
X64.0Y-43.5
X64.0Y-46.04
X64.0Y-48.58
X64.0Y-51.12
X64.0Y-53.66
X64.0Y-56.2
X64.0Y-58.74
T3
X45.8Y-21.5
X50.2Y-21.5
T0
M30
