%TF.GenerationSoftware,KiCad,Pcbnew,(5.1.10)-1*%
%TF.CreationDate,2021-07-29T02:28:10+01:00*%
%TF.ProjectId,STM32_MSB,53544d33-325f-44d5-9342-2e6b69636164,rev?*%
%TF.SameCoordinates,Original*%
%TF.FileFunction,Legend,Top*%
%TF.FilePolarity,Positive*%
%FSLAX46Y46*%
G04 Gerber Fmt 4.6, Leading zero omitted, Abs format (unit mm)*
G04 Created by KiCad (PCBNEW (5.1.10)-1) date 2021-07-29 02:28:10*
%MOMM*%
%LPD*%
G01*
G04 APERTURE LIST*
%ADD10C,0.150000*%
%ADD11C,0.200000*%
%ADD12C,0.300000*%
%ADD13C,0.010000*%
%ADD14C,0.120000*%
G04 APERTURE END LIST*
D10*
X42880952Y-15952380D02*
X42880952Y-16666666D01*
X42833333Y-16809523D01*
X42738095Y-16904761D01*
X42595238Y-16952380D01*
X42500000Y-16952380D01*
X43833333Y-16952380D02*
X43357142Y-16952380D01*
X43357142Y-15952380D01*
X44738095Y-16857142D02*
X44690476Y-16904761D01*
X44547619Y-16952380D01*
X44452380Y-16952380D01*
X44309523Y-16904761D01*
X44214285Y-16809523D01*
X44166666Y-16714285D01*
X44119047Y-16523809D01*
X44119047Y-16380952D01*
X44166666Y-16190476D01*
X44214285Y-16095238D01*
X44309523Y-16000000D01*
X44452380Y-15952380D01*
X44547619Y-15952380D01*
X44690476Y-16000000D01*
X44738095Y-16047619D01*
X45452380Y-15952380D02*
X45452380Y-16666666D01*
X45404761Y-16809523D01*
X45309523Y-16904761D01*
X45166666Y-16952380D01*
X45071428Y-16952380D01*
X46404761Y-16952380D02*
X45928571Y-16952380D01*
X45928571Y-15952380D01*
X47309523Y-16857142D02*
X47261904Y-16904761D01*
X47119047Y-16952380D01*
X47023809Y-16952380D01*
X46880952Y-16904761D01*
X46785714Y-16809523D01*
X46738095Y-16714285D01*
X46690476Y-16523809D01*
X46690476Y-16380952D01*
X46738095Y-16190476D01*
X46785714Y-16095238D01*
X46880952Y-16000000D01*
X47023809Y-15952380D01*
X47119047Y-15952380D01*
X47261904Y-16000000D01*
X47309523Y-16047619D01*
X48023809Y-15952380D02*
X48023809Y-16666666D01*
X47976190Y-16809523D01*
X47880952Y-16904761D01*
X47738095Y-16952380D01*
X47642857Y-16952380D01*
X48976190Y-16952380D02*
X48500000Y-16952380D01*
X48500000Y-15952380D01*
X49880952Y-16857142D02*
X49833333Y-16904761D01*
X49690476Y-16952380D01*
X49595238Y-16952380D01*
X49452380Y-16904761D01*
X49357142Y-16809523D01*
X49309523Y-16714285D01*
X49261904Y-16523809D01*
X49261904Y-16380952D01*
X49309523Y-16190476D01*
X49357142Y-16095238D01*
X49452380Y-16000000D01*
X49595238Y-15952380D01*
X49690476Y-15952380D01*
X49833333Y-16000000D01*
X49880952Y-16047619D01*
X50595238Y-15952380D02*
X50595238Y-16666666D01*
X50547619Y-16809523D01*
X50452380Y-16904761D01*
X50309523Y-16952380D01*
X50214285Y-16952380D01*
X51547619Y-16952380D02*
X51071428Y-16952380D01*
X51071428Y-15952380D01*
X52452380Y-16857142D02*
X52404761Y-16904761D01*
X52261904Y-16952380D01*
X52166666Y-16952380D01*
X52023809Y-16904761D01*
X51928571Y-16809523D01*
X51880952Y-16714285D01*
X51833333Y-16523809D01*
X51833333Y-16380952D01*
X51880952Y-16190476D01*
X51928571Y-16095238D01*
X52023809Y-16000000D01*
X52166666Y-15952380D01*
X52261904Y-15952380D01*
X52404761Y-16000000D01*
X52452380Y-16047619D01*
X34619047Y-17571428D02*
X35380952Y-17571428D01*
X35000000Y-17952380D02*
X35000000Y-17190476D01*
D11*
X37842857Y-42542857D02*
X37157142Y-42542857D01*
X37500000Y-42542857D02*
X37500000Y-41342857D01*
X37385714Y-41514285D01*
X37271428Y-41628571D01*
X37157142Y-41685714D01*
D10*
X58047619Y-17202380D02*
X58142857Y-17202380D01*
X58238095Y-17250000D01*
X58285714Y-17297619D01*
X58333333Y-17392857D01*
X58380952Y-17583333D01*
X58380952Y-17821428D01*
X58333333Y-18011904D01*
X58285714Y-18107142D01*
X58238095Y-18154761D01*
X58142857Y-18202380D01*
X58047619Y-18202380D01*
X57952380Y-18154761D01*
X57904761Y-18107142D01*
X57857142Y-18011904D01*
X57809523Y-17821428D01*
X57809523Y-17583333D01*
X57857142Y-17392857D01*
X57904761Y-17297619D01*
X57952380Y-17250000D01*
X58047619Y-17202380D01*
X58714285Y-17202380D02*
X59380952Y-17202380D01*
X58952380Y-18202380D01*
X60476190Y-17154761D02*
X59619047Y-18440476D01*
X60761904Y-17297619D02*
X60809523Y-17250000D01*
X60904761Y-17202380D01*
X61142857Y-17202380D01*
X61238095Y-17250000D01*
X61285714Y-17297619D01*
X61333333Y-17392857D01*
X61333333Y-17488095D01*
X61285714Y-17630952D01*
X60714285Y-18202380D01*
X61333333Y-18202380D01*
X61952380Y-17202380D02*
X62047619Y-17202380D01*
X62142857Y-17250000D01*
X62190476Y-17297619D01*
X62238095Y-17392857D01*
X62285714Y-17583333D01*
X62285714Y-17821428D01*
X62238095Y-18011904D01*
X62190476Y-18107142D01*
X62142857Y-18154761D01*
X62047619Y-18202380D01*
X61952380Y-18202380D01*
X61857142Y-18154761D01*
X61809523Y-18107142D01*
X61761904Y-18011904D01*
X61714285Y-17821428D01*
X61714285Y-17583333D01*
X61761904Y-17392857D01*
X61809523Y-17297619D01*
X61857142Y-17250000D01*
X61952380Y-17202380D01*
X62666666Y-17297619D02*
X62714285Y-17250000D01*
X62809523Y-17202380D01*
X63047619Y-17202380D01*
X63142857Y-17250000D01*
X63190476Y-17297619D01*
X63238095Y-17392857D01*
X63238095Y-17488095D01*
X63190476Y-17630952D01*
X62619047Y-18202380D01*
X63238095Y-18202380D01*
X64190476Y-18202380D02*
X63619047Y-18202380D01*
X63904761Y-18202380D02*
X63904761Y-17202380D01*
X63809523Y-17345238D01*
X63714285Y-17440476D01*
X63619047Y-17488095D01*
X57916666Y-15702380D02*
X58488095Y-15702380D01*
X58202380Y-16702380D02*
X58202380Y-15702380D01*
X58821428Y-16607142D02*
X58869047Y-16654761D01*
X58821428Y-16702380D01*
X58773809Y-16654761D01*
X58821428Y-16607142D01*
X58821428Y-16702380D01*
X59250000Y-16654761D02*
X59392857Y-16702380D01*
X59630952Y-16702380D01*
X59726190Y-16654761D01*
X59773809Y-16607142D01*
X59821428Y-16511904D01*
X59821428Y-16416666D01*
X59773809Y-16321428D01*
X59726190Y-16273809D01*
X59630952Y-16226190D01*
X59440476Y-16178571D01*
X59345238Y-16130952D01*
X59297619Y-16083333D01*
X59250000Y-15988095D01*
X59250000Y-15892857D01*
X59297619Y-15797619D01*
X59345238Y-15750000D01*
X59440476Y-15702380D01*
X59678571Y-15702380D01*
X59821428Y-15750000D01*
X60250000Y-16035714D02*
X60250000Y-17035714D01*
X60250000Y-16083333D02*
X60345238Y-16035714D01*
X60535714Y-16035714D01*
X60630952Y-16083333D01*
X60678571Y-16130952D01*
X60726190Y-16226190D01*
X60726190Y-16511904D01*
X60678571Y-16607142D01*
X60630952Y-16654761D01*
X60535714Y-16702380D01*
X60345238Y-16702380D01*
X60250000Y-16654761D01*
X61154761Y-16702380D02*
X61154761Y-16035714D01*
X61154761Y-15702380D02*
X61107142Y-15750000D01*
X61154761Y-15797619D01*
X61202380Y-15750000D01*
X61154761Y-15702380D01*
X61154761Y-15797619D01*
X61630952Y-16702380D02*
X61630952Y-16035714D01*
X61630952Y-16226190D02*
X61678571Y-16130952D01*
X61726190Y-16083333D01*
X61821428Y-16035714D01*
X61916666Y-16035714D01*
X62630952Y-16654761D02*
X62535714Y-16702380D01*
X62345238Y-16702380D01*
X62250000Y-16654761D01*
X62202380Y-16559523D01*
X62202380Y-16178571D01*
X62250000Y-16083333D01*
X62345238Y-16035714D01*
X62535714Y-16035714D01*
X62630952Y-16083333D01*
X62678571Y-16178571D01*
X62678571Y-16273809D01*
X62202380Y-16369047D01*
X63059523Y-16654761D02*
X63154761Y-16702380D01*
X63345238Y-16702380D01*
X63440476Y-16654761D01*
X63488095Y-16559523D01*
X63488095Y-16511904D01*
X63440476Y-16416666D01*
X63345238Y-16369047D01*
X63202380Y-16369047D01*
X63107142Y-16321428D01*
X63059523Y-16226190D01*
X63059523Y-16178571D01*
X63107142Y-16083333D01*
X63202380Y-16035714D01*
X63345238Y-16035714D01*
X63440476Y-16083333D01*
D11*
X35371428Y-21485714D02*
X35542857Y-21542857D01*
X35828571Y-21542857D01*
X35942857Y-21485714D01*
X36000000Y-21428571D01*
X36057142Y-21314285D01*
X36057142Y-21200000D01*
X36000000Y-21085714D01*
X35942857Y-21028571D01*
X35828571Y-20971428D01*
X35600000Y-20914285D01*
X35485714Y-20857142D01*
X35428571Y-20800000D01*
X35371428Y-20685714D01*
X35371428Y-20571428D01*
X35428571Y-20457142D01*
X35485714Y-20400000D01*
X35600000Y-20342857D01*
X35885714Y-20342857D01*
X36057142Y-20400000D01*
X36457142Y-20342857D02*
X36742857Y-21542857D01*
X36971428Y-20685714D01*
X37200000Y-21542857D01*
X37485714Y-20342857D01*
X37942857Y-21542857D02*
X37942857Y-20342857D01*
X38228571Y-20342857D01*
X38400000Y-20400000D01*
X38514285Y-20514285D01*
X38571428Y-20628571D01*
X38628571Y-20857142D01*
X38628571Y-21028571D01*
X38571428Y-21257142D01*
X38514285Y-21371428D01*
X38400000Y-21485714D01*
X38228571Y-21542857D01*
X37942857Y-21542857D01*
X56392857Y-21592857D02*
X56392857Y-22564285D01*
X56450000Y-22678571D01*
X56507142Y-22735714D01*
X56621428Y-22792857D01*
X56850000Y-22792857D01*
X56964285Y-22735714D01*
X57021428Y-22678571D01*
X57078571Y-22564285D01*
X57078571Y-21592857D01*
X57592857Y-22735714D02*
X57764285Y-22792857D01*
X58050000Y-22792857D01*
X58164285Y-22735714D01*
X58221428Y-22678571D01*
X58278571Y-22564285D01*
X58278571Y-22450000D01*
X58221428Y-22335714D01*
X58164285Y-22278571D01*
X58050000Y-22221428D01*
X57821428Y-22164285D01*
X57707142Y-22107142D01*
X57650000Y-22050000D01*
X57592857Y-21935714D01*
X57592857Y-21821428D01*
X57650000Y-21707142D01*
X57707142Y-21650000D01*
X57821428Y-21592857D01*
X58107142Y-21592857D01*
X58278571Y-21650000D01*
X59192857Y-22164285D02*
X59364285Y-22221428D01*
X59421428Y-22278571D01*
X59478571Y-22392857D01*
X59478571Y-22564285D01*
X59421428Y-22678571D01*
X59364285Y-22735714D01*
X59250000Y-22792857D01*
X58792857Y-22792857D01*
X58792857Y-21592857D01*
X59192857Y-21592857D01*
X59307142Y-21650000D01*
X59364285Y-21707142D01*
X59421428Y-21821428D01*
X59421428Y-21935714D01*
X59364285Y-22050000D01*
X59307142Y-22107142D01*
X59192857Y-22164285D01*
X58792857Y-22164285D01*
X60907142Y-22792857D02*
X60907142Y-21592857D01*
X61364285Y-21592857D01*
X61478571Y-21650000D01*
X61535714Y-21707142D01*
X61592857Y-21821428D01*
X61592857Y-21992857D01*
X61535714Y-22107142D01*
X61478571Y-22164285D01*
X61364285Y-22221428D01*
X60907142Y-22221428D01*
X61992857Y-21592857D02*
X62278571Y-22792857D01*
X62507142Y-21935714D01*
X62735714Y-22792857D01*
X63021428Y-21592857D01*
X64164285Y-22792857D02*
X63764285Y-22221428D01*
X63478571Y-22792857D02*
X63478571Y-21592857D01*
X63935714Y-21592857D01*
X64050000Y-21650000D01*
X64107142Y-21707142D01*
X64164285Y-21821428D01*
X64164285Y-21992857D01*
X64107142Y-22107142D01*
X64050000Y-22164285D01*
X63935714Y-22221428D01*
X63478571Y-22221428D01*
X31014285Y-15842857D02*
X31757142Y-15842857D01*
X31357142Y-16300000D01*
X31528571Y-16300000D01*
X31642857Y-16357142D01*
X31700000Y-16414285D01*
X31757142Y-16528571D01*
X31757142Y-16814285D01*
X31700000Y-16928571D01*
X31642857Y-16985714D01*
X31528571Y-17042857D01*
X31185714Y-17042857D01*
X31071428Y-16985714D01*
X31014285Y-16928571D01*
X32100000Y-15842857D02*
X32500000Y-17042857D01*
X32900000Y-15842857D01*
X33185714Y-15842857D02*
X33928571Y-15842857D01*
X33528571Y-16300000D01*
X33700000Y-16300000D01*
X33814285Y-16357142D01*
X33871428Y-16414285D01*
X33928571Y-16528571D01*
X33928571Y-16814285D01*
X33871428Y-16928571D01*
X33814285Y-16985714D01*
X33700000Y-17042857D01*
X33357142Y-17042857D01*
X33242857Y-16985714D01*
X33185714Y-16928571D01*
X60771428Y-41542857D02*
X60085714Y-41542857D01*
X60428571Y-41542857D02*
X60428571Y-40342857D01*
X60314285Y-40514285D01*
X60200000Y-40628571D01*
X60085714Y-40685714D01*
X61800000Y-40742857D02*
X61800000Y-41542857D01*
X61514285Y-40285714D02*
X61228571Y-41142857D01*
X61971428Y-41142857D01*
X24342857Y-37542857D02*
X23942857Y-36971428D01*
X23657142Y-37542857D02*
X23657142Y-36342857D01*
X24114285Y-36342857D01*
X24228571Y-36400000D01*
X24285714Y-36457142D01*
X24342857Y-36571428D01*
X24342857Y-36742857D01*
X24285714Y-36857142D01*
X24228571Y-36914285D01*
X24114285Y-36971428D01*
X23657142Y-36971428D01*
X24800000Y-37485714D02*
X24971428Y-37542857D01*
X25257142Y-37542857D01*
X25371428Y-37485714D01*
X25428571Y-37428571D01*
X25485714Y-37314285D01*
X25485714Y-37200000D01*
X25428571Y-37085714D01*
X25371428Y-37028571D01*
X25257142Y-36971428D01*
X25028571Y-36914285D01*
X24914285Y-36857142D01*
X24857142Y-36800000D01*
X24800000Y-36685714D01*
X24800000Y-36571428D01*
X24857142Y-36457142D01*
X24914285Y-36400000D01*
X25028571Y-36342857D01*
X25314285Y-36342857D01*
X25485714Y-36400000D01*
X25828571Y-36342857D02*
X26514285Y-36342857D01*
X26171428Y-37542857D02*
X26171428Y-36342857D01*
X23271428Y-41542857D02*
X22585714Y-41542857D01*
X22928571Y-41542857D02*
X22928571Y-40342857D01*
X22814285Y-40514285D01*
X22700000Y-40628571D01*
X22585714Y-40685714D01*
X24300000Y-40742857D02*
X24300000Y-41542857D01*
X24014285Y-40285714D02*
X23728571Y-41142857D01*
X24471428Y-41142857D01*
D12*
X52892857Y-58178571D02*
X52892857Y-59392857D01*
X52964285Y-59535714D01*
X53035714Y-59607142D01*
X53178571Y-59678571D01*
X53464285Y-59678571D01*
X53607142Y-59607142D01*
X53678571Y-59535714D01*
X53750000Y-59392857D01*
X53750000Y-58178571D01*
X54392857Y-59607142D02*
X54607142Y-59678571D01*
X54964285Y-59678571D01*
X55107142Y-59607142D01*
X55178571Y-59535714D01*
X55250000Y-59392857D01*
X55250000Y-59250000D01*
X55178571Y-59107142D01*
X55107142Y-59035714D01*
X54964285Y-58964285D01*
X54678571Y-58892857D01*
X54535714Y-58821428D01*
X54464285Y-58750000D01*
X54392857Y-58607142D01*
X54392857Y-58464285D01*
X54464285Y-58321428D01*
X54535714Y-58250000D01*
X54678571Y-58178571D01*
X55035714Y-58178571D01*
X55250000Y-58250000D01*
X55821428Y-59250000D02*
X56535714Y-59250000D01*
X55678571Y-59678571D02*
X56178571Y-58178571D01*
X56678571Y-59678571D01*
X58035714Y-59678571D02*
X57535714Y-58964285D01*
X57178571Y-59678571D02*
X57178571Y-58178571D01*
X57750000Y-58178571D01*
X57892857Y-58250000D01*
X57964285Y-58321428D01*
X58035714Y-58464285D01*
X58035714Y-58678571D01*
X57964285Y-58821428D01*
X57892857Y-58892857D01*
X57750000Y-58964285D01*
X57178571Y-58964285D01*
X58464285Y-58178571D02*
X59321428Y-58178571D01*
X58892857Y-59678571D02*
X58892857Y-58178571D01*
X46464285Y-59607142D02*
X46678571Y-59678571D01*
X47035714Y-59678571D01*
X47178571Y-59607142D01*
X47250000Y-59535714D01*
X47321428Y-59392857D01*
X47321428Y-59250000D01*
X47250000Y-59107142D01*
X47178571Y-59035714D01*
X47035714Y-58964285D01*
X46750000Y-58892857D01*
X46607142Y-58821428D01*
X46535714Y-58750000D01*
X46464285Y-58607142D01*
X46464285Y-58464285D01*
X46535714Y-58321428D01*
X46607142Y-58250000D01*
X46750000Y-58178571D01*
X47107142Y-58178571D01*
X47321428Y-58250000D01*
X47964285Y-59678571D02*
X47964285Y-58178571D01*
X48535714Y-58178571D01*
X48678571Y-58250000D01*
X48750000Y-58321428D01*
X48821428Y-58464285D01*
X48821428Y-58678571D01*
X48750000Y-58821428D01*
X48678571Y-58892857D01*
X48535714Y-58964285D01*
X47964285Y-58964285D01*
X49464285Y-59678571D02*
X49464285Y-58178571D01*
X30535714Y-59678571D02*
X30535714Y-58178571D01*
X31178571Y-58321428D02*
X31250000Y-58250000D01*
X31392857Y-58178571D01*
X31750000Y-58178571D01*
X31892857Y-58250000D01*
X31964285Y-58321428D01*
X32035714Y-58464285D01*
X32035714Y-58607142D01*
X31964285Y-58821428D01*
X31107142Y-59678571D01*
X32035714Y-59678571D01*
X33535714Y-59535714D02*
X33464285Y-59607142D01*
X33250000Y-59678571D01*
X33107142Y-59678571D01*
X32892857Y-59607142D01*
X32750000Y-59464285D01*
X32678571Y-59321428D01*
X32607142Y-59035714D01*
X32607142Y-58821428D01*
X32678571Y-58535714D01*
X32750000Y-58392857D01*
X32892857Y-58250000D01*
X33107142Y-58178571D01*
X33250000Y-58178571D01*
X33464285Y-58250000D01*
X33535714Y-58321428D01*
X38535714Y-59535714D02*
X38464285Y-59607142D01*
X38250000Y-59678571D01*
X38107142Y-59678571D01*
X37892857Y-59607142D01*
X37750000Y-59464285D01*
X37678571Y-59321428D01*
X37607142Y-59035714D01*
X37607142Y-58821428D01*
X37678571Y-58535714D01*
X37750000Y-58392857D01*
X37892857Y-58250000D01*
X38107142Y-58178571D01*
X38250000Y-58178571D01*
X38464285Y-58250000D01*
X38535714Y-58321428D01*
X39107142Y-59250000D02*
X39821428Y-59250000D01*
X38964285Y-59678571D02*
X39464285Y-58178571D01*
X39964285Y-59678571D01*
X40464285Y-59678571D02*
X40464285Y-58178571D01*
X41321428Y-59678571D01*
X41321428Y-58178571D01*
X28585714Y-52978571D02*
X28842857Y-53064285D01*
X29271428Y-53064285D01*
X29442857Y-52978571D01*
X29528571Y-52892857D01*
X29614285Y-52721428D01*
X29614285Y-52550000D01*
X29528571Y-52378571D01*
X29442857Y-52292857D01*
X29271428Y-52207142D01*
X28928571Y-52121428D01*
X28757142Y-52035714D01*
X28671428Y-51950000D01*
X28585714Y-51778571D01*
X28585714Y-51607142D01*
X28671428Y-51435714D01*
X28757142Y-51350000D01*
X28928571Y-51264285D01*
X29357142Y-51264285D01*
X29614285Y-51350000D01*
X30128571Y-51264285D02*
X31157142Y-51264285D01*
X30642857Y-53064285D02*
X30642857Y-51264285D01*
X31757142Y-53064285D02*
X31757142Y-51264285D01*
X32357142Y-52550000D01*
X32957142Y-51264285D01*
X32957142Y-53064285D01*
X33642857Y-51264285D02*
X34757142Y-51264285D01*
X34157142Y-51950000D01*
X34414285Y-51950000D01*
X34585714Y-52035714D01*
X34671428Y-52121428D01*
X34757142Y-52292857D01*
X34757142Y-52721428D01*
X34671428Y-52892857D01*
X34585714Y-52978571D01*
X34414285Y-53064285D01*
X33900000Y-53064285D01*
X33728571Y-52978571D01*
X33642857Y-52892857D01*
X35442857Y-51435714D02*
X35528571Y-51350000D01*
X35700000Y-51264285D01*
X36128571Y-51264285D01*
X36300000Y-51350000D01*
X36385714Y-51435714D01*
X36471428Y-51607142D01*
X36471428Y-51778571D01*
X36385714Y-52035714D01*
X35357142Y-53064285D01*
X36471428Y-53064285D01*
X38614285Y-53064285D02*
X38614285Y-51264285D01*
X39214285Y-52550000D01*
X39814285Y-51264285D01*
X39814285Y-53064285D01*
X40585714Y-52978571D02*
X40842857Y-53064285D01*
X41271428Y-53064285D01*
X41442857Y-52978571D01*
X41528571Y-52892857D01*
X41614285Y-52721428D01*
X41614285Y-52550000D01*
X41528571Y-52378571D01*
X41442857Y-52292857D01*
X41271428Y-52207142D01*
X40928571Y-52121428D01*
X40757142Y-52035714D01*
X40671428Y-51950000D01*
X40585714Y-51778571D01*
X40585714Y-51607142D01*
X40671428Y-51435714D01*
X40757142Y-51350000D01*
X40928571Y-51264285D01*
X41357142Y-51264285D01*
X41614285Y-51350000D01*
X42985714Y-52121428D02*
X43242857Y-52207142D01*
X43328571Y-52292857D01*
X43414285Y-52464285D01*
X43414285Y-52721428D01*
X43328571Y-52892857D01*
X43242857Y-52978571D01*
X43071428Y-53064285D01*
X42385714Y-53064285D01*
X42385714Y-51264285D01*
X42985714Y-51264285D01*
X43157142Y-51350000D01*
X43242857Y-51435714D01*
X43328571Y-51607142D01*
X43328571Y-51778571D01*
X43242857Y-51950000D01*
X43157142Y-52035714D01*
X42985714Y-52121428D01*
X42385714Y-52121428D01*
D13*
%TO.C,G\u002A\u002A\u002A*%
G36*
X39996136Y-28340783D02*
G01*
X39962629Y-28385418D01*
X39888949Y-28455147D01*
X39773421Y-28551349D01*
X39614375Y-28675405D01*
X39410136Y-28828694D01*
X39359715Y-28865931D01*
X39200006Y-28984470D01*
X39056886Y-29092390D01*
X38936195Y-29185146D01*
X38843778Y-29258195D01*
X38785475Y-29306992D01*
X38767049Y-29326869D01*
X38784774Y-29354993D01*
X38828967Y-29422202D01*
X38894512Y-29520800D01*
X38976294Y-29643091D01*
X39066521Y-29777404D01*
X39170783Y-29933628D01*
X39246448Y-30051101D01*
X39297433Y-30137212D01*
X39327653Y-30199350D01*
X39341024Y-30244906D01*
X39341461Y-30281269D01*
X39339446Y-30292460D01*
X39326704Y-30337437D01*
X39304003Y-30362165D01*
X39256995Y-30372695D01*
X39171331Y-30375078D01*
X39143488Y-30375111D01*
X38965683Y-30375111D01*
X38703598Y-29935502D01*
X38441514Y-29495894D01*
X38389772Y-29632113D01*
X38358998Y-29716525D01*
X38316920Y-29836460D01*
X38269835Y-29973813D01*
X38236904Y-30071722D01*
X38135777Y-30375111D01*
X37775461Y-30375111D01*
X38134342Y-29316891D01*
X38493222Y-28258672D01*
X38669611Y-28258558D01*
X38761013Y-28259681D01*
X38824761Y-28262723D01*
X38846000Y-28266557D01*
X38837510Y-28294682D01*
X38814086Y-28366977D01*
X38778791Y-28474113D01*
X38734691Y-28606764D01*
X38706898Y-28689891D01*
X38659992Y-28831997D01*
X38621336Y-28953161D01*
X38593715Y-29044316D01*
X38579916Y-29096389D01*
X38579348Y-29105111D01*
X38603871Y-29088510D01*
X38666667Y-29041854D01*
X38761546Y-28969859D01*
X38882319Y-28877244D01*
X39022796Y-28768725D01*
X39134727Y-28681788D01*
X39678555Y-28258465D01*
X39855025Y-28258455D01*
X40031495Y-28258444D01*
X39996136Y-28340783D01*
G37*
X39996136Y-28340783D02*
X39962629Y-28385418D01*
X39888949Y-28455147D01*
X39773421Y-28551349D01*
X39614375Y-28675405D01*
X39410136Y-28828694D01*
X39359715Y-28865931D01*
X39200006Y-28984470D01*
X39056886Y-29092390D01*
X38936195Y-29185146D01*
X38843778Y-29258195D01*
X38785475Y-29306992D01*
X38767049Y-29326869D01*
X38784774Y-29354993D01*
X38828967Y-29422202D01*
X38894512Y-29520800D01*
X38976294Y-29643091D01*
X39066521Y-29777404D01*
X39170783Y-29933628D01*
X39246448Y-30051101D01*
X39297433Y-30137212D01*
X39327653Y-30199350D01*
X39341024Y-30244906D01*
X39341461Y-30281269D01*
X39339446Y-30292460D01*
X39326704Y-30337437D01*
X39304003Y-30362165D01*
X39256995Y-30372695D01*
X39171331Y-30375078D01*
X39143488Y-30375111D01*
X38965683Y-30375111D01*
X38703598Y-29935502D01*
X38441514Y-29495894D01*
X38389772Y-29632113D01*
X38358998Y-29716525D01*
X38316920Y-29836460D01*
X38269835Y-29973813D01*
X38236904Y-30071722D01*
X38135777Y-30375111D01*
X37775461Y-30375111D01*
X38134342Y-29316891D01*
X38493222Y-28258672D01*
X38669611Y-28258558D01*
X38761013Y-28259681D01*
X38824761Y-28262723D01*
X38846000Y-28266557D01*
X38837510Y-28294682D01*
X38814086Y-28366977D01*
X38778791Y-28474113D01*
X38734691Y-28606764D01*
X38706898Y-28689891D01*
X38659992Y-28831997D01*
X38621336Y-28953161D01*
X38593715Y-29044316D01*
X38579916Y-29096389D01*
X38579348Y-29105111D01*
X38603871Y-29088510D01*
X38666667Y-29041854D01*
X38761546Y-28969859D01*
X38882319Y-28877244D01*
X39022796Y-28768725D01*
X39134727Y-28681788D01*
X39678555Y-28258465D01*
X39855025Y-28258455D01*
X40031495Y-28258444D01*
X39996136Y-28340783D01*
G36*
X37682860Y-28264140D02*
G01*
X37810061Y-28283879D01*
X37904434Y-28321637D01*
X37977337Y-28381393D01*
X38020500Y-28436708D01*
X38067666Y-28547605D01*
X38085125Y-28685400D01*
X38070343Y-28827518D01*
X38066211Y-28844055D01*
X38051366Y-28878817D01*
X38021072Y-28897950D01*
X37961238Y-28906008D01*
X37869747Y-28907555D01*
X37690299Y-28907555D01*
X37706033Y-28828889D01*
X37699823Y-28738391D01*
X37665459Y-28680723D01*
X37632917Y-28646376D01*
X37594323Y-28625692D01*
X37535409Y-28615290D01*
X37441903Y-28611791D01*
X37373504Y-28611580D01*
X37249344Y-28614109D01*
X37164800Y-28623476D01*
X37103154Y-28643037D01*
X37047685Y-28676150D01*
X37046058Y-28677305D01*
X36948020Y-28768707D01*
X36890346Y-28869104D01*
X36876131Y-28968119D01*
X36908468Y-29055373D01*
X36926888Y-29076888D01*
X36963772Y-29105220D01*
X37014016Y-29122328D01*
X37091447Y-29130823D01*
X37209890Y-29133313D01*
X37226012Y-29133333D01*
X37406920Y-29142472D01*
X37542810Y-29172024D01*
X37642420Y-29225192D01*
X37714489Y-29305179D01*
X37720360Y-29314519D01*
X37777523Y-29440569D01*
X37791718Y-29570519D01*
X37764365Y-29721133D01*
X37756892Y-29746142D01*
X37684699Y-29899391D01*
X37570714Y-30049211D01*
X37428599Y-30181643D01*
X37272016Y-30282731D01*
X37200996Y-30314080D01*
X37066072Y-30350497D01*
X36907555Y-30371885D01*
X36742799Y-30377988D01*
X36589155Y-30368547D01*
X36463979Y-30343306D01*
X36419451Y-30325678D01*
X36298995Y-30237068D01*
X36224344Y-30116512D01*
X36196439Y-29966320D01*
X36210750Y-29814194D01*
X36222646Y-29766375D01*
X36243551Y-29739996D01*
X36287689Y-29728680D01*
X36369285Y-29726049D01*
X36407446Y-29726000D01*
X36586503Y-29726000D01*
X36582640Y-29828758D01*
X36589113Y-29906926D01*
X36620897Y-29959419D01*
X36686109Y-29990748D01*
X36792862Y-30005427D01*
X36905462Y-30008222D01*
X37069576Y-29999704D01*
X37190560Y-29971194D01*
X37279545Y-29918255D01*
X37347659Y-29836450D01*
X37351364Y-29830463D01*
X37404174Y-29714066D01*
X37406307Y-29622172D01*
X37358247Y-29555440D01*
X37260479Y-29514524D01*
X37113485Y-29500082D01*
X37108111Y-29500064D01*
X36988341Y-29495359D01*
X36873372Y-29483281D01*
X36799888Y-29469213D01*
X36661433Y-29407714D01*
X36564041Y-29314108D01*
X36507747Y-29195052D01*
X36492588Y-29057206D01*
X36518602Y-28907228D01*
X36585825Y-28751778D01*
X36694293Y-28597514D01*
X36794519Y-28494039D01*
X36922217Y-28392499D01*
X37054132Y-28322905D01*
X37204267Y-28280656D01*
X37386626Y-28261150D01*
X37511475Y-28258444D01*
X37682860Y-28264140D01*
G37*
X37682860Y-28264140D02*
X37810061Y-28283879D01*
X37904434Y-28321637D01*
X37977337Y-28381393D01*
X38020500Y-28436708D01*
X38067666Y-28547605D01*
X38085125Y-28685400D01*
X38070343Y-28827518D01*
X38066211Y-28844055D01*
X38051366Y-28878817D01*
X38021072Y-28897950D01*
X37961238Y-28906008D01*
X37869747Y-28907555D01*
X37690299Y-28907555D01*
X37706033Y-28828889D01*
X37699823Y-28738391D01*
X37665459Y-28680723D01*
X37632917Y-28646376D01*
X37594323Y-28625692D01*
X37535409Y-28615290D01*
X37441903Y-28611791D01*
X37373504Y-28611580D01*
X37249344Y-28614109D01*
X37164800Y-28623476D01*
X37103154Y-28643037D01*
X37047685Y-28676150D01*
X37046058Y-28677305D01*
X36948020Y-28768707D01*
X36890346Y-28869104D01*
X36876131Y-28968119D01*
X36908468Y-29055373D01*
X36926888Y-29076888D01*
X36963772Y-29105220D01*
X37014016Y-29122328D01*
X37091447Y-29130823D01*
X37209890Y-29133313D01*
X37226012Y-29133333D01*
X37406920Y-29142472D01*
X37542810Y-29172024D01*
X37642420Y-29225192D01*
X37714489Y-29305179D01*
X37720360Y-29314519D01*
X37777523Y-29440569D01*
X37791718Y-29570519D01*
X37764365Y-29721133D01*
X37756892Y-29746142D01*
X37684699Y-29899391D01*
X37570714Y-30049211D01*
X37428599Y-30181643D01*
X37272016Y-30282731D01*
X37200996Y-30314080D01*
X37066072Y-30350497D01*
X36907555Y-30371885D01*
X36742799Y-30377988D01*
X36589155Y-30368547D01*
X36463979Y-30343306D01*
X36419451Y-30325678D01*
X36298995Y-30237068D01*
X36224344Y-30116512D01*
X36196439Y-29966320D01*
X36210750Y-29814194D01*
X36222646Y-29766375D01*
X36243551Y-29739996D01*
X36287689Y-29728680D01*
X36369285Y-29726049D01*
X36407446Y-29726000D01*
X36586503Y-29726000D01*
X36582640Y-29828758D01*
X36589113Y-29906926D01*
X36620897Y-29959419D01*
X36686109Y-29990748D01*
X36792862Y-30005427D01*
X36905462Y-30008222D01*
X37069576Y-29999704D01*
X37190560Y-29971194D01*
X37279545Y-29918255D01*
X37347659Y-29836450D01*
X37351364Y-29830463D01*
X37404174Y-29714066D01*
X37406307Y-29622172D01*
X37358247Y-29555440D01*
X37260479Y-29514524D01*
X37113485Y-29500082D01*
X37108111Y-29500064D01*
X36988341Y-29495359D01*
X36873372Y-29483281D01*
X36799888Y-29469213D01*
X36661433Y-29407714D01*
X36564041Y-29314108D01*
X36507747Y-29195052D01*
X36492588Y-29057206D01*
X36518602Y-28907228D01*
X36585825Y-28751778D01*
X36694293Y-28597514D01*
X36794519Y-28494039D01*
X36922217Y-28392499D01*
X37054132Y-28322905D01*
X37204267Y-28280656D01*
X37386626Y-28261150D01*
X37511475Y-28258444D01*
X37682860Y-28264140D01*
G36*
X36487314Y-28321944D02*
G01*
X36464164Y-28392778D01*
X36435172Y-28478546D01*
X36433218Y-28484222D01*
X36399167Y-28583000D01*
X35809306Y-28597111D01*
X35219444Y-28611222D01*
X35128815Y-28851111D01*
X35088642Y-28959341D01*
X35057339Y-29047269D01*
X35039510Y-29101791D01*
X35037093Y-29112166D01*
X35063332Y-29119395D01*
X35136481Y-29125562D01*
X35247007Y-29130208D01*
X35385379Y-29132874D01*
X35476463Y-29133333D01*
X35650023Y-29134346D01*
X35773379Y-29137726D01*
X35852742Y-29143987D01*
X35894325Y-29153640D01*
X35904336Y-29167199D01*
X35903907Y-29168611D01*
X35888215Y-29213922D01*
X35861911Y-29292360D01*
X35842175Y-29352055D01*
X35793463Y-29500222D01*
X34906523Y-29500222D01*
X34830150Y-29734736D01*
X34795804Y-29842296D01*
X34769466Y-29928763D01*
X34755197Y-29980638D01*
X34753777Y-29988736D01*
X34780612Y-29994575D01*
X34855566Y-29999715D01*
X34970316Y-30003877D01*
X35116541Y-30006782D01*
X35285916Y-30008151D01*
X35335352Y-30008222D01*
X35538433Y-30008950D01*
X35690693Y-30011368D01*
X35797740Y-30015823D01*
X35865182Y-30022663D01*
X35898627Y-30032235D01*
X35904286Y-30043500D01*
X35888264Y-30088545D01*
X35860625Y-30166529D01*
X35839247Y-30226944D01*
X35786849Y-30375111D01*
X34250326Y-30375111D01*
X34607885Y-29317145D01*
X34965444Y-28259180D01*
X35736401Y-28258812D01*
X36507359Y-28258444D01*
X36487314Y-28321944D01*
G37*
X36487314Y-28321944D02*
X36464164Y-28392778D01*
X36435172Y-28478546D01*
X36433218Y-28484222D01*
X36399167Y-28583000D01*
X35809306Y-28597111D01*
X35219444Y-28611222D01*
X35128815Y-28851111D01*
X35088642Y-28959341D01*
X35057339Y-29047269D01*
X35039510Y-29101791D01*
X35037093Y-29112166D01*
X35063332Y-29119395D01*
X35136481Y-29125562D01*
X35247007Y-29130208D01*
X35385379Y-29132874D01*
X35476463Y-29133333D01*
X35650023Y-29134346D01*
X35773379Y-29137726D01*
X35852742Y-29143987D01*
X35894325Y-29153640D01*
X35904336Y-29167199D01*
X35903907Y-29168611D01*
X35888215Y-29213922D01*
X35861911Y-29292360D01*
X35842175Y-29352055D01*
X35793463Y-29500222D01*
X34906523Y-29500222D01*
X34830150Y-29734736D01*
X34795804Y-29842296D01*
X34769466Y-29928763D01*
X34755197Y-29980638D01*
X34753777Y-29988736D01*
X34780612Y-29994575D01*
X34855566Y-29999715D01*
X34970316Y-30003877D01*
X35116541Y-30006782D01*
X35285916Y-30008151D01*
X35335352Y-30008222D01*
X35538433Y-30008950D01*
X35690693Y-30011368D01*
X35797740Y-30015823D01*
X35865182Y-30022663D01*
X35898627Y-30032235D01*
X35904286Y-30043500D01*
X35888264Y-30088545D01*
X35860625Y-30166529D01*
X35839247Y-30226944D01*
X35786849Y-30375111D01*
X34250326Y-30375111D01*
X34607885Y-29317145D01*
X34965444Y-28259180D01*
X35736401Y-28258812D01*
X36507359Y-28258444D01*
X36487314Y-28321944D01*
G36*
X33943112Y-28259862D02*
G01*
X34108023Y-28265410D01*
X34232578Y-28277034D01*
X34324801Y-28296677D01*
X34392716Y-28326283D01*
X34444345Y-28367796D01*
X34487711Y-28423160D01*
X34502036Y-28445544D01*
X34536378Y-28513886D01*
X34555208Y-28588895D01*
X34557512Y-28678242D01*
X34542274Y-28789598D01*
X34508478Y-28930636D01*
X34455109Y-29109028D01*
X34386861Y-29315647D01*
X34317090Y-29518542D01*
X34259861Y-29676249D01*
X34210777Y-29797420D01*
X34165438Y-29890709D01*
X34119449Y-29964771D01*
X34068411Y-30028259D01*
X34007925Y-30089826D01*
X33980285Y-30115683D01*
X33892983Y-30193614D01*
X33815651Y-30253094D01*
X33738628Y-30296771D01*
X33652252Y-30327290D01*
X33546860Y-30347297D01*
X33412790Y-30359437D01*
X33240380Y-30366357D01*
X33050804Y-30370205D01*
X32490831Y-30379410D01*
X32511285Y-30313760D01*
X32524816Y-30272717D01*
X32554377Y-30184630D01*
X32597808Y-30055887D01*
X32616317Y-30001166D01*
X32976590Y-30001166D01*
X33002597Y-30003963D01*
X33073821Y-30006216D01*
X33179036Y-30007679D01*
X33293277Y-30008116D01*
X33440626Y-30006480D01*
X33544373Y-30000533D01*
X33617304Y-29988550D01*
X33672204Y-29968801D01*
X33700966Y-29953019D01*
X33746654Y-29922574D01*
X33785107Y-29887842D01*
X33820154Y-29841199D01*
X33855624Y-29775022D01*
X33895347Y-29681687D01*
X33943153Y-29553570D01*
X34002871Y-29383049D01*
X34036464Y-29285146D01*
X34095691Y-29110046D01*
X34137698Y-28979707D01*
X34164443Y-28885807D01*
X34177884Y-28820019D01*
X34179976Y-28774020D01*
X34172679Y-28739485D01*
X34167649Y-28727191D01*
X34128690Y-28669992D01*
X34067322Y-28631640D01*
X33974624Y-28609687D01*
X33841680Y-28601686D01*
X33715778Y-28603197D01*
X33448551Y-28611222D01*
X33212977Y-29302666D01*
X33149548Y-29489012D01*
X33092521Y-29656881D01*
X33044307Y-29799150D01*
X33007317Y-29908694D01*
X32983961Y-29978389D01*
X32976590Y-30001166D01*
X32616317Y-30001166D01*
X32652947Y-29892876D01*
X32717634Y-29701986D01*
X32789707Y-29489605D01*
X32867006Y-29262121D01*
X32870013Y-29253277D01*
X33208287Y-28258444D01*
X33729822Y-28258444D01*
X33943112Y-28259862D01*
G37*
X33943112Y-28259862D02*
X34108023Y-28265410D01*
X34232578Y-28277034D01*
X34324801Y-28296677D01*
X34392716Y-28326283D01*
X34444345Y-28367796D01*
X34487711Y-28423160D01*
X34502036Y-28445544D01*
X34536378Y-28513886D01*
X34555208Y-28588895D01*
X34557512Y-28678242D01*
X34542274Y-28789598D01*
X34508478Y-28930636D01*
X34455109Y-29109028D01*
X34386861Y-29315647D01*
X34317090Y-29518542D01*
X34259861Y-29676249D01*
X34210777Y-29797420D01*
X34165438Y-29890709D01*
X34119449Y-29964771D01*
X34068411Y-30028259D01*
X34007925Y-30089826D01*
X33980285Y-30115683D01*
X33892983Y-30193614D01*
X33815651Y-30253094D01*
X33738628Y-30296771D01*
X33652252Y-30327290D01*
X33546860Y-30347297D01*
X33412790Y-30359437D01*
X33240380Y-30366357D01*
X33050804Y-30370205D01*
X32490831Y-30379410D01*
X32511285Y-30313760D01*
X32524816Y-30272717D01*
X32554377Y-30184630D01*
X32597808Y-30055887D01*
X32616317Y-30001166D01*
X32976590Y-30001166D01*
X33002597Y-30003963D01*
X33073821Y-30006216D01*
X33179036Y-30007679D01*
X33293277Y-30008116D01*
X33440626Y-30006480D01*
X33544373Y-30000533D01*
X33617304Y-29988550D01*
X33672204Y-29968801D01*
X33700966Y-29953019D01*
X33746654Y-29922574D01*
X33785107Y-29887842D01*
X33820154Y-29841199D01*
X33855624Y-29775022D01*
X33895347Y-29681687D01*
X33943153Y-29553570D01*
X34002871Y-29383049D01*
X34036464Y-29285146D01*
X34095691Y-29110046D01*
X34137698Y-28979707D01*
X34164443Y-28885807D01*
X34177884Y-28820019D01*
X34179976Y-28774020D01*
X34172679Y-28739485D01*
X34167649Y-28727191D01*
X34128690Y-28669992D01*
X34067322Y-28631640D01*
X33974624Y-28609687D01*
X33841680Y-28601686D01*
X33715778Y-28603197D01*
X33448551Y-28611222D01*
X33212977Y-29302666D01*
X33149548Y-29489012D01*
X33092521Y-29656881D01*
X33044307Y-29799150D01*
X33007317Y-29908694D01*
X32983961Y-29978389D01*
X32976590Y-30001166D01*
X32616317Y-30001166D01*
X32652947Y-29892876D01*
X32717634Y-29701986D01*
X32789707Y-29489605D01*
X32867006Y-29262121D01*
X32870013Y-29253277D01*
X33208287Y-28258444D01*
X33729822Y-28258444D01*
X33943112Y-28259862D01*
G36*
X32959682Y-28321487D02*
G01*
X32936421Y-28392689D01*
X32907383Y-28478649D01*
X32905466Y-28484222D01*
X32871440Y-28583000D01*
X32587603Y-28591013D01*
X32439039Y-28598695D01*
X32335068Y-28611709D01*
X32281020Y-28629330D01*
X32276668Y-28633346D01*
X32259828Y-28669725D01*
X32228742Y-28751062D01*
X32186539Y-28868612D01*
X32136348Y-29013628D01*
X32081298Y-29177367D01*
X32072522Y-29203888D01*
X32008888Y-29395449D01*
X31942243Y-29594058D01*
X31877937Y-29783912D01*
X31821318Y-29949206D01*
X31783578Y-30057611D01*
X31671682Y-30375111D01*
X31313024Y-30375111D01*
X31608178Y-29511551D01*
X31679703Y-29301526D01*
X31744978Y-29108388D01*
X31801837Y-28938665D01*
X31848112Y-28798889D01*
X31881633Y-28695589D01*
X31900235Y-28635294D01*
X31903333Y-28622551D01*
X31877100Y-28611905D01*
X31806339Y-28603448D01*
X31702955Y-28598245D01*
X31619209Y-28597111D01*
X31487467Y-28597790D01*
X31404427Y-28594384D01*
X31362497Y-28578728D01*
X31354083Y-28542656D01*
X31371591Y-28478001D01*
X31407427Y-28376598D01*
X31409248Y-28371333D01*
X31443321Y-28272555D01*
X32979871Y-28257529D01*
X32959682Y-28321487D01*
G37*
X32959682Y-28321487D02*
X32936421Y-28392689D01*
X32907383Y-28478649D01*
X32905466Y-28484222D01*
X32871440Y-28583000D01*
X32587603Y-28591013D01*
X32439039Y-28598695D01*
X32335068Y-28611709D01*
X32281020Y-28629330D01*
X32276668Y-28633346D01*
X32259828Y-28669725D01*
X32228742Y-28751062D01*
X32186539Y-28868612D01*
X32136348Y-29013628D01*
X32081298Y-29177367D01*
X32072522Y-29203888D01*
X32008888Y-29395449D01*
X31942243Y-29594058D01*
X31877937Y-29783912D01*
X31821318Y-29949206D01*
X31783578Y-30057611D01*
X31671682Y-30375111D01*
X31313024Y-30375111D01*
X31608178Y-29511551D01*
X31679703Y-29301526D01*
X31744978Y-29108388D01*
X31801837Y-28938665D01*
X31848112Y-28798889D01*
X31881633Y-28695589D01*
X31900235Y-28635294D01*
X31903333Y-28622551D01*
X31877100Y-28611905D01*
X31806339Y-28603448D01*
X31702955Y-28598245D01*
X31619209Y-28597111D01*
X31487467Y-28597790D01*
X31404427Y-28594384D01*
X31362497Y-28578728D01*
X31354083Y-28542656D01*
X31371591Y-28478001D01*
X31407427Y-28376598D01*
X31409248Y-28371333D01*
X31443321Y-28272555D01*
X32979871Y-28257529D01*
X32959682Y-28321487D01*
G36*
X29953812Y-28260128D02*
G01*
X30018433Y-28264525D01*
X30040666Y-28270164D01*
X30031929Y-28299509D01*
X30007836Y-28372699D01*
X29971568Y-28480267D01*
X29926304Y-28612742D01*
X29899555Y-28690392D01*
X29850729Y-28832809D01*
X29809225Y-28955907D01*
X29778236Y-29050053D01*
X29760954Y-29105617D01*
X29758444Y-29116116D01*
X29784998Y-29122248D01*
X29857995Y-29127416D01*
X29967435Y-29131194D01*
X30103317Y-29133154D01*
X30161339Y-29133333D01*
X30564234Y-29133333D01*
X30697831Y-28731166D01*
X30746296Y-28587447D01*
X30790176Y-28461341D01*
X30825734Y-28363292D01*
X30849232Y-28303743D01*
X30854895Y-28292259D01*
X30897065Y-28269573D01*
X30987381Y-28262312D01*
X31047523Y-28264036D01*
X31216685Y-28272555D01*
X30861509Y-29316777D01*
X30506333Y-30361000D01*
X30329944Y-30369402D01*
X30232707Y-30369902D01*
X30170371Y-30361723D01*
X30153555Y-30349861D01*
X30162501Y-30314662D01*
X30187142Y-30236337D01*
X30224178Y-30124916D01*
X30270312Y-29990427D01*
X30294666Y-29920774D01*
X30343781Y-29780542D01*
X30385461Y-29660378D01*
X30416451Y-29569753D01*
X30433499Y-29518141D01*
X30435777Y-29509926D01*
X30409214Y-29506486D01*
X30336158Y-29503582D01*
X30226560Y-29501452D01*
X30090371Y-29500333D01*
X30028897Y-29500222D01*
X29622018Y-29500222D01*
X29476222Y-29937666D01*
X29330426Y-30375111D01*
X29146304Y-30375111D01*
X29042500Y-30371993D01*
X28987709Y-30361658D01*
X28974794Y-30342629D01*
X28975664Y-30339833D01*
X28987479Y-30305981D01*
X29015335Y-30224720D01*
X29057172Y-30102105D01*
X29110930Y-29944188D01*
X29174548Y-29757024D01*
X29245965Y-29546666D01*
X29323121Y-29319170D01*
X29335890Y-29281500D01*
X29682633Y-28258444D01*
X29861650Y-28258444D01*
X29953812Y-28260128D01*
G37*
X29953812Y-28260128D02*
X30018433Y-28264525D01*
X30040666Y-28270164D01*
X30031929Y-28299509D01*
X30007836Y-28372699D01*
X29971568Y-28480267D01*
X29926304Y-28612742D01*
X29899555Y-28690392D01*
X29850729Y-28832809D01*
X29809225Y-28955907D01*
X29778236Y-29050053D01*
X29760954Y-29105617D01*
X29758444Y-29116116D01*
X29784998Y-29122248D01*
X29857995Y-29127416D01*
X29967435Y-29131194D01*
X30103317Y-29133154D01*
X30161339Y-29133333D01*
X30564234Y-29133333D01*
X30697831Y-28731166D01*
X30746296Y-28587447D01*
X30790176Y-28461341D01*
X30825734Y-28363292D01*
X30849232Y-28303743D01*
X30854895Y-28292259D01*
X30897065Y-28269573D01*
X30987381Y-28262312D01*
X31047523Y-28264036D01*
X31216685Y-28272555D01*
X30861509Y-29316777D01*
X30506333Y-30361000D01*
X30329944Y-30369402D01*
X30232707Y-30369902D01*
X30170371Y-30361723D01*
X30153555Y-30349861D01*
X30162501Y-30314662D01*
X30187142Y-30236337D01*
X30224178Y-30124916D01*
X30270312Y-29990427D01*
X30294666Y-29920774D01*
X30343781Y-29780542D01*
X30385461Y-29660378D01*
X30416451Y-29569753D01*
X30433499Y-29518141D01*
X30435777Y-29509926D01*
X30409214Y-29506486D01*
X30336158Y-29503582D01*
X30226560Y-29501452D01*
X30090371Y-29500333D01*
X30028897Y-29500222D01*
X29622018Y-29500222D01*
X29476222Y-29937666D01*
X29330426Y-30375111D01*
X29146304Y-30375111D01*
X29042500Y-30371993D01*
X28987709Y-30361658D01*
X28974794Y-30342629D01*
X28975664Y-30339833D01*
X28987479Y-30305981D01*
X29015335Y-30224720D01*
X29057172Y-30102105D01*
X29110930Y-29944188D01*
X29174548Y-29757024D01*
X29245965Y-29546666D01*
X29323121Y-29319170D01*
X29335890Y-29281500D01*
X29682633Y-28258444D01*
X29861650Y-28258444D01*
X29953812Y-28260128D01*
G36*
X28750794Y-28262828D02*
G01*
X28886402Y-28268355D01*
X28978461Y-28276220D01*
X29039866Y-28289196D01*
X29083508Y-28310059D01*
X29122283Y-28341581D01*
X29123923Y-28343111D01*
X29220735Y-28458342D01*
X29269728Y-28584091D01*
X29274369Y-28732405D01*
X29261027Y-28819361D01*
X29249131Y-28867180D01*
X29228226Y-28893558D01*
X29184088Y-28904874D01*
X29102491Y-28907506D01*
X29064331Y-28907555D01*
X28885274Y-28907555D01*
X28889041Y-28807356D01*
X28883228Y-28722813D01*
X28852876Y-28665804D01*
X28789882Y-28631507D01*
X28686142Y-28615102D01*
X28560082Y-28611623D01*
X28441085Y-28613328D01*
X28361406Y-28620821D01*
X28303934Y-28638409D01*
X28251561Y-28670394D01*
X28215401Y-28698340D01*
X28176034Y-28732637D01*
X28142424Y-28771460D01*
X28110547Y-28823246D01*
X28076381Y-28896433D01*
X28035903Y-28999461D01*
X27985091Y-29140768D01*
X27933071Y-29290605D01*
X27878105Y-29452311D01*
X27830038Y-29597958D01*
X27791815Y-29718271D01*
X27766384Y-29803972D01*
X27756689Y-29845785D01*
X27756682Y-29845944D01*
X27774017Y-29901527D01*
X27811111Y-29951777D01*
X27849019Y-29980664D01*
X27900899Y-29997856D01*
X27980953Y-30006120D01*
X28100893Y-30008222D01*
X28270376Y-29998382D01*
X28396484Y-29964794D01*
X28489459Y-29901355D01*
X28559540Y-29801963D01*
X28599124Y-29711313D01*
X28630689Y-29622650D01*
X28651982Y-29554613D01*
X28657777Y-29527385D01*
X28632550Y-29511185D01*
X28568724Y-29501468D01*
X28530777Y-29500222D01*
X28458533Y-29497815D01*
X28419261Y-29483339D01*
X28408960Y-29445908D01*
X28423627Y-29374636D01*
X28451265Y-29283980D01*
X28498752Y-29133333D01*
X29161925Y-29133333D01*
X29051874Y-29460909D01*
X29002012Y-29601784D01*
X28950308Y-29735222D01*
X28903260Y-29845117D01*
X28870801Y-29909674D01*
X28758064Y-30057919D01*
X28609221Y-30191226D01*
X28444574Y-30292520D01*
X28385703Y-30317725D01*
X28256593Y-30352041D01*
X28102261Y-30372070D01*
X27940261Y-30377631D01*
X27788145Y-30368544D01*
X27663469Y-30344628D01*
X27614118Y-30325678D01*
X27532288Y-30268137D01*
X27458526Y-30190699D01*
X27449097Y-30177555D01*
X27413342Y-30108718D01*
X27394946Y-30028118D01*
X27394905Y-29928993D01*
X27414211Y-29804580D01*
X27453859Y-29648115D01*
X27514844Y-29452835D01*
X27585988Y-29246222D01*
X27663202Y-29034323D01*
X27729972Y-28867892D01*
X27791400Y-28738132D01*
X27852592Y-28636250D01*
X27918652Y-28553453D01*
X27994682Y-28480944D01*
X28060484Y-28428652D01*
X28175103Y-28353112D01*
X28291374Y-28302263D01*
X28423286Y-28272744D01*
X28584830Y-28261195D01*
X28750794Y-28262828D01*
G37*
X28750794Y-28262828D02*
X28886402Y-28268355D01*
X28978461Y-28276220D01*
X29039866Y-28289196D01*
X29083508Y-28310059D01*
X29122283Y-28341581D01*
X29123923Y-28343111D01*
X29220735Y-28458342D01*
X29269728Y-28584091D01*
X29274369Y-28732405D01*
X29261027Y-28819361D01*
X29249131Y-28867180D01*
X29228226Y-28893558D01*
X29184088Y-28904874D01*
X29102491Y-28907506D01*
X29064331Y-28907555D01*
X28885274Y-28907555D01*
X28889041Y-28807356D01*
X28883228Y-28722813D01*
X28852876Y-28665804D01*
X28789882Y-28631507D01*
X28686142Y-28615102D01*
X28560082Y-28611623D01*
X28441085Y-28613328D01*
X28361406Y-28620821D01*
X28303934Y-28638409D01*
X28251561Y-28670394D01*
X28215401Y-28698340D01*
X28176034Y-28732637D01*
X28142424Y-28771460D01*
X28110547Y-28823246D01*
X28076381Y-28896433D01*
X28035903Y-28999461D01*
X27985091Y-29140768D01*
X27933071Y-29290605D01*
X27878105Y-29452311D01*
X27830038Y-29597958D01*
X27791815Y-29718271D01*
X27766384Y-29803972D01*
X27756689Y-29845785D01*
X27756682Y-29845944D01*
X27774017Y-29901527D01*
X27811111Y-29951777D01*
X27849019Y-29980664D01*
X27900899Y-29997856D01*
X27980953Y-30006120D01*
X28100893Y-30008222D01*
X28270376Y-29998382D01*
X28396484Y-29964794D01*
X28489459Y-29901355D01*
X28559540Y-29801963D01*
X28599124Y-29711313D01*
X28630689Y-29622650D01*
X28651982Y-29554613D01*
X28657777Y-29527385D01*
X28632550Y-29511185D01*
X28568724Y-29501468D01*
X28530777Y-29500222D01*
X28458533Y-29497815D01*
X28419261Y-29483339D01*
X28408960Y-29445908D01*
X28423627Y-29374636D01*
X28451265Y-29283980D01*
X28498752Y-29133333D01*
X29161925Y-29133333D01*
X29051874Y-29460909D01*
X29002012Y-29601784D01*
X28950308Y-29735222D01*
X28903260Y-29845117D01*
X28870801Y-29909674D01*
X28758064Y-30057919D01*
X28609221Y-30191226D01*
X28444574Y-30292520D01*
X28385703Y-30317725D01*
X28256593Y-30352041D01*
X28102261Y-30372070D01*
X27940261Y-30377631D01*
X27788145Y-30368544D01*
X27663469Y-30344628D01*
X27614118Y-30325678D01*
X27532288Y-30268137D01*
X27458526Y-30190699D01*
X27449097Y-30177555D01*
X27413342Y-30108718D01*
X27394946Y-30028118D01*
X27394905Y-29928993D01*
X27414211Y-29804580D01*
X27453859Y-29648115D01*
X27514844Y-29452835D01*
X27585988Y-29246222D01*
X27663202Y-29034323D01*
X27729972Y-28867892D01*
X27791400Y-28738132D01*
X27852592Y-28636250D01*
X27918652Y-28553453D01*
X27994682Y-28480944D01*
X28060484Y-28428652D01*
X28175103Y-28353112D01*
X28291374Y-28302263D01*
X28423286Y-28272744D01*
X28584830Y-28261195D01*
X28750794Y-28262828D01*
G36*
X27637336Y-28427777D02*
G01*
X27580151Y-28597111D01*
X27289428Y-28597111D01*
X27155871Y-28598324D01*
X27068201Y-28603078D01*
X27015892Y-28613044D01*
X26988416Y-28629894D01*
X26978397Y-28646500D01*
X26964019Y-28686217D01*
X26934449Y-28771480D01*
X26892410Y-28894308D01*
X26840625Y-29046721D01*
X26781818Y-29220740D01*
X26737624Y-29352055D01*
X26517160Y-30008222D01*
X26797246Y-30008222D01*
X26941197Y-30010915D01*
X27032282Y-30019255D01*
X27073834Y-30033633D01*
X27077333Y-30041019D01*
X27069315Y-30084637D01*
X27048684Y-30161995D01*
X27029845Y-30224463D01*
X26982358Y-30375111D01*
X25445557Y-30375111D01*
X25504907Y-30192566D01*
X25564256Y-30010021D01*
X26157994Y-29994111D01*
X26388844Y-29316777D01*
X26451187Y-29131640D01*
X26506150Y-28964135D01*
X26551429Y-28821641D01*
X26584719Y-28711538D01*
X26603717Y-28641204D01*
X26606959Y-28618277D01*
X26575006Y-28609112D01*
X26499707Y-28601946D01*
X26394152Y-28597772D01*
X26327778Y-28597111D01*
X26212961Y-28595275D01*
X26122980Y-28590344D01*
X26070130Y-28583180D01*
X26061333Y-28578424D01*
X26069204Y-28543182D01*
X26089493Y-28472031D01*
X26108820Y-28409091D01*
X26156308Y-28258444D01*
X27694521Y-28258444D01*
X27637336Y-28427777D01*
G37*
X27637336Y-28427777D02*
X27580151Y-28597111D01*
X27289428Y-28597111D01*
X27155871Y-28598324D01*
X27068201Y-28603078D01*
X27015892Y-28613044D01*
X26988416Y-28629894D01*
X26978397Y-28646500D01*
X26964019Y-28686217D01*
X26934449Y-28771480D01*
X26892410Y-28894308D01*
X26840625Y-29046721D01*
X26781818Y-29220740D01*
X26737624Y-29352055D01*
X26517160Y-30008222D01*
X26797246Y-30008222D01*
X26941197Y-30010915D01*
X27032282Y-30019255D01*
X27073834Y-30033633D01*
X27077333Y-30041019D01*
X27069315Y-30084637D01*
X27048684Y-30161995D01*
X27029845Y-30224463D01*
X26982358Y-30375111D01*
X25445557Y-30375111D01*
X25504907Y-30192566D01*
X25564256Y-30010021D01*
X26157994Y-29994111D01*
X26388844Y-29316777D01*
X26451187Y-29131640D01*
X26506150Y-28964135D01*
X26551429Y-28821641D01*
X26584719Y-28711538D01*
X26603717Y-28641204D01*
X26606959Y-28618277D01*
X26575006Y-28609112D01*
X26499707Y-28601946D01*
X26394152Y-28597772D01*
X26327778Y-28597111D01*
X26212961Y-28595275D01*
X26122980Y-28590344D01*
X26070130Y-28583180D01*
X26061333Y-28578424D01*
X26069204Y-28543182D01*
X26089493Y-28472031D01*
X26108820Y-28409091D01*
X26156308Y-28258444D01*
X27694521Y-28258444D01*
X27637336Y-28427777D01*
G36*
X24465305Y-29121528D02*
G01*
X24393940Y-29330772D01*
X24328798Y-29522446D01*
X24272038Y-29690146D01*
X24225816Y-29827472D01*
X24192291Y-29928022D01*
X24173619Y-29985393D01*
X24170444Y-29996417D01*
X24197275Y-29999963D01*
X24272205Y-30003083D01*
X24386889Y-30005607D01*
X24532982Y-30007363D01*
X24702138Y-30008183D01*
X24749000Y-30008222D01*
X24953466Y-30009013D01*
X25107080Y-30011615D01*
X25215416Y-30016367D01*
X25284048Y-30023613D01*
X25318548Y-30033691D01*
X25325368Y-30043500D01*
X25315244Y-30088824D01*
X25291736Y-30166193D01*
X25273555Y-30219888D01*
X25223930Y-30361000D01*
X24457298Y-30368509D01*
X24255905Y-30369791D01*
X24074302Y-30369621D01*
X23919737Y-30368114D01*
X23799459Y-30365384D01*
X23720715Y-30361546D01*
X23690755Y-30356714D01*
X23690666Y-30356416D01*
X23699378Y-30327334D01*
X23723907Y-30251958D01*
X23761845Y-30137412D01*
X23810782Y-29990822D01*
X23868309Y-29819313D01*
X23932017Y-29630012D01*
X23999497Y-29430043D01*
X24068339Y-29226532D01*
X24136136Y-29026604D01*
X24200476Y-28837386D01*
X24258953Y-28666003D01*
X24309155Y-28519580D01*
X24348675Y-28405242D01*
X24375103Y-28330116D01*
X24383285Y-28307833D01*
X24405182Y-28279797D01*
X24452313Y-28264545D01*
X24537774Y-28258809D01*
X24581213Y-28258444D01*
X24760166Y-28258444D01*
X24465305Y-29121528D01*
G37*
X24465305Y-29121528D02*
X24393940Y-29330772D01*
X24328798Y-29522446D01*
X24272038Y-29690146D01*
X24225816Y-29827472D01*
X24192291Y-29928022D01*
X24173619Y-29985393D01*
X24170444Y-29996417D01*
X24197275Y-29999963D01*
X24272205Y-30003083D01*
X24386889Y-30005607D01*
X24532982Y-30007363D01*
X24702138Y-30008183D01*
X24749000Y-30008222D01*
X24953466Y-30009013D01*
X25107080Y-30011615D01*
X25215416Y-30016367D01*
X25284048Y-30023613D01*
X25318548Y-30033691D01*
X25325368Y-30043500D01*
X25315244Y-30088824D01*
X25291736Y-30166193D01*
X25273555Y-30219888D01*
X25223930Y-30361000D01*
X24457298Y-30368509D01*
X24255905Y-30369791D01*
X24074302Y-30369621D01*
X23919737Y-30368114D01*
X23799459Y-30365384D01*
X23720715Y-30361546D01*
X23690755Y-30356714D01*
X23690666Y-30356416D01*
X23699378Y-30327334D01*
X23723907Y-30251958D01*
X23761845Y-30137412D01*
X23810782Y-29990822D01*
X23868309Y-29819313D01*
X23932017Y-29630012D01*
X23999497Y-29430043D01*
X24068339Y-29226532D01*
X24136136Y-29026604D01*
X24200476Y-28837386D01*
X24258953Y-28666003D01*
X24309155Y-28519580D01*
X24348675Y-28405242D01*
X24375103Y-28330116D01*
X24383285Y-28307833D01*
X24405182Y-28279797D01*
X24452313Y-28264545D01*
X24537774Y-28258809D01*
X24581213Y-28258444D01*
X24760166Y-28258444D01*
X24465305Y-29121528D01*
G36*
X24154203Y-28321944D02*
G01*
X24131050Y-28392776D01*
X24102048Y-28478542D01*
X24100092Y-28484222D01*
X24066026Y-28583000D01*
X23486223Y-28590619D01*
X23269492Y-28594606D01*
X23104880Y-28600352D01*
X22988081Y-28608154D01*
X22914789Y-28618315D01*
X22880698Y-28631133D01*
X22878966Y-28632952D01*
X22857090Y-28675741D01*
X22825245Y-28755832D01*
X22790017Y-28856562D01*
X22787182Y-28865222D01*
X22753916Y-28966776D01*
X22726529Y-29049294D01*
X22710533Y-29096178D01*
X22709850Y-29098055D01*
X22717362Y-29111945D01*
X22755837Y-29121908D01*
X22831472Y-29128454D01*
X22950463Y-29132089D01*
X23119005Y-29133322D01*
X23140333Y-29133333D01*
X23314567Y-29134337D01*
X23438584Y-29137690D01*
X23518579Y-29143897D01*
X23560748Y-29153468D01*
X23571288Y-29166910D01*
X23570796Y-29168611D01*
X23555104Y-29213922D01*
X23528800Y-29292360D01*
X23509064Y-29352055D01*
X23460352Y-29500222D01*
X23011065Y-29500222D01*
X22851581Y-29501783D01*
X22719258Y-29506143D01*
X22622403Y-29512820D01*
X22569322Y-29521330D01*
X22561777Y-29526357D01*
X22552862Y-29560814D01*
X22528278Y-29638618D01*
X22491266Y-29749935D01*
X22445068Y-29884930D01*
X22417586Y-29963802D01*
X22273395Y-30375111D01*
X21915982Y-30375111D01*
X22274158Y-29317110D01*
X22632333Y-28259109D01*
X23403290Y-28258777D01*
X24174248Y-28258444D01*
X24154203Y-28321944D01*
G37*
X24154203Y-28321944D02*
X24131050Y-28392776D01*
X24102048Y-28478542D01*
X24100092Y-28484222D01*
X24066026Y-28583000D01*
X23486223Y-28590619D01*
X23269492Y-28594606D01*
X23104880Y-28600352D01*
X22988081Y-28608154D01*
X22914789Y-28618315D01*
X22880698Y-28631133D01*
X22878966Y-28632952D01*
X22857090Y-28675741D01*
X22825245Y-28755832D01*
X22790017Y-28856562D01*
X22787182Y-28865222D01*
X22753916Y-28966776D01*
X22726529Y-29049294D01*
X22710533Y-29096178D01*
X22709850Y-29098055D01*
X22717362Y-29111945D01*
X22755837Y-29121908D01*
X22831472Y-29128454D01*
X22950463Y-29132089D01*
X23119005Y-29133322D01*
X23140333Y-29133333D01*
X23314567Y-29134337D01*
X23438584Y-29137690D01*
X23518579Y-29143897D01*
X23560748Y-29153468D01*
X23571288Y-29166910D01*
X23570796Y-29168611D01*
X23555104Y-29213922D01*
X23528800Y-29292360D01*
X23509064Y-29352055D01*
X23460352Y-29500222D01*
X23011065Y-29500222D01*
X22851581Y-29501783D01*
X22719258Y-29506143D01*
X22622403Y-29512820D01*
X22569322Y-29521330D01*
X22561777Y-29526357D01*
X22552862Y-29560814D01*
X22528278Y-29638618D01*
X22491266Y-29749935D01*
X22445068Y-29884930D01*
X22417586Y-29963802D01*
X22273395Y-30375111D01*
X21915982Y-30375111D01*
X22274158Y-29317110D01*
X22632333Y-28259109D01*
X23403290Y-28258777D01*
X24174248Y-28258444D01*
X24154203Y-28321944D01*
G36*
X42997125Y-32074671D02*
G01*
X43073058Y-32084133D01*
X43131268Y-32101548D01*
X43163039Y-32116346D01*
X43271052Y-32202523D01*
X43341619Y-32323589D01*
X43370973Y-32469139D01*
X43355350Y-32628768D01*
X43352541Y-32639944D01*
X43337957Y-32682310D01*
X43312640Y-32705551D01*
X43262031Y-32715388D01*
X43171571Y-32717541D01*
X43155018Y-32717555D01*
X42977778Y-32717555D01*
X42988553Y-32625261D01*
X42984178Y-32537273D01*
X42943629Y-32476475D01*
X42861721Y-32439680D01*
X42733269Y-32423702D01*
X42658564Y-32422457D01*
X42479966Y-32437548D01*
X42344879Y-32482462D01*
X42247194Y-32560116D01*
X42193337Y-32644654D01*
X42159052Y-32724534D01*
X42152831Y-32777978D01*
X42176042Y-32828280D01*
X42206492Y-32868971D01*
X42238537Y-32904980D01*
X42274522Y-32927004D01*
X42328388Y-32938463D01*
X42414074Y-32942775D01*
X42509881Y-32943377D01*
X42707185Y-32956554D01*
X42857995Y-32997822D01*
X42966242Y-33069908D01*
X43035856Y-33175538D01*
X43070768Y-33317437D01*
X43072489Y-33333594D01*
X43061038Y-33494789D01*
X43000771Y-33659060D01*
X42897950Y-33817138D01*
X42758838Y-33959757D01*
X42589698Y-34077649D01*
X42558181Y-34094683D01*
X42485249Y-34128797D01*
X42413294Y-34151516D01*
X42326702Y-34165731D01*
X42209856Y-34174329D01*
X42105666Y-34178426D01*
X41960747Y-34181595D01*
X41858655Y-34179081D01*
X41785932Y-34169474D01*
X41729124Y-34151360D01*
X41696444Y-34135481D01*
X41599015Y-34053793D01*
X41529921Y-33947750D01*
X41489671Y-33856999D01*
X41475923Y-33784289D01*
X41484056Y-33700572D01*
X41487588Y-33681571D01*
X41513000Y-33550111D01*
X41689388Y-33541708D01*
X41865777Y-33533306D01*
X41865777Y-33629056D01*
X41876736Y-33713067D01*
X41914913Y-33769189D01*
X41988256Y-33802106D01*
X42104716Y-33816501D01*
X42186901Y-33818222D01*
X42369779Y-33804861D01*
X42507675Y-33762822D01*
X42605841Y-33689166D01*
X42669528Y-33580957D01*
X42682833Y-33540842D01*
X42692937Y-33463400D01*
X42664668Y-33398805D01*
X42654377Y-33385124D01*
X42623431Y-33352443D01*
X42583984Y-33331162D01*
X42522926Y-33317941D01*
X42427145Y-33309439D01*
X42339120Y-33304819D01*
X42156676Y-33289111D01*
X42027986Y-33261572D01*
X41984474Y-33243611D01*
X41875869Y-33158569D01*
X41809474Y-33045952D01*
X41783317Y-32913314D01*
X41795432Y-32768213D01*
X41843847Y-32618205D01*
X41926593Y-32470845D01*
X42041701Y-32333690D01*
X42187202Y-32214295D01*
X42265168Y-32166661D01*
X42336156Y-32130019D01*
X42400473Y-32105484D01*
X42473029Y-32090165D01*
X42568738Y-32081174D01*
X42702511Y-32075619D01*
X42740666Y-32074512D01*
X42890614Y-32071889D01*
X42997125Y-32074671D01*
G37*
X42997125Y-32074671D02*
X43073058Y-32084133D01*
X43131268Y-32101548D01*
X43163039Y-32116346D01*
X43271052Y-32202523D01*
X43341619Y-32323589D01*
X43370973Y-32469139D01*
X43355350Y-32628768D01*
X43352541Y-32639944D01*
X43337957Y-32682310D01*
X43312640Y-32705551D01*
X43262031Y-32715388D01*
X43171571Y-32717541D01*
X43155018Y-32717555D01*
X42977778Y-32717555D01*
X42988553Y-32625261D01*
X42984178Y-32537273D01*
X42943629Y-32476475D01*
X42861721Y-32439680D01*
X42733269Y-32423702D01*
X42658564Y-32422457D01*
X42479966Y-32437548D01*
X42344879Y-32482462D01*
X42247194Y-32560116D01*
X42193337Y-32644654D01*
X42159052Y-32724534D01*
X42152831Y-32777978D01*
X42176042Y-32828280D01*
X42206492Y-32868971D01*
X42238537Y-32904980D01*
X42274522Y-32927004D01*
X42328388Y-32938463D01*
X42414074Y-32942775D01*
X42509881Y-32943377D01*
X42707185Y-32956554D01*
X42857995Y-32997822D01*
X42966242Y-33069908D01*
X43035856Y-33175538D01*
X43070768Y-33317437D01*
X43072489Y-33333594D01*
X43061038Y-33494789D01*
X43000771Y-33659060D01*
X42897950Y-33817138D01*
X42758838Y-33959757D01*
X42589698Y-34077649D01*
X42558181Y-34094683D01*
X42485249Y-34128797D01*
X42413294Y-34151516D01*
X42326702Y-34165731D01*
X42209856Y-34174329D01*
X42105666Y-34178426D01*
X41960747Y-34181595D01*
X41858655Y-34179081D01*
X41785932Y-34169474D01*
X41729124Y-34151360D01*
X41696444Y-34135481D01*
X41599015Y-34053793D01*
X41529921Y-33947750D01*
X41489671Y-33856999D01*
X41475923Y-33784289D01*
X41484056Y-33700572D01*
X41487588Y-33681571D01*
X41513000Y-33550111D01*
X41689388Y-33541708D01*
X41865777Y-33533306D01*
X41865777Y-33629056D01*
X41876736Y-33713067D01*
X41914913Y-33769189D01*
X41988256Y-33802106D01*
X42104716Y-33816501D01*
X42186901Y-33818222D01*
X42369779Y-33804861D01*
X42507675Y-33762822D01*
X42605841Y-33689166D01*
X42669528Y-33580957D01*
X42682833Y-33540842D01*
X42692937Y-33463400D01*
X42664668Y-33398805D01*
X42654377Y-33385124D01*
X42623431Y-33352443D01*
X42583984Y-33331162D01*
X42522926Y-33317941D01*
X42427145Y-33309439D01*
X42339120Y-33304819D01*
X42156676Y-33289111D01*
X42027986Y-33261572D01*
X41984474Y-33243611D01*
X41875869Y-33158569D01*
X41809474Y-33045952D01*
X41783317Y-32913314D01*
X41795432Y-32768213D01*
X41843847Y-32618205D01*
X41926593Y-32470845D01*
X42041701Y-32333690D01*
X42187202Y-32214295D01*
X42265168Y-32166661D01*
X42336156Y-32130019D01*
X42400473Y-32105484D01*
X42473029Y-32090165D01*
X42568738Y-32081174D01*
X42702511Y-32075619D01*
X42740666Y-32074512D01*
X42890614Y-32071889D01*
X42997125Y-32074671D01*
G36*
X40692273Y-32318828D02*
G01*
X40851974Y-32571927D01*
X41182487Y-32320495D01*
X41313067Y-32222064D01*
X41408972Y-32153242D01*
X41479915Y-32108766D01*
X41535605Y-32083373D01*
X41585753Y-32071801D01*
X41640072Y-32068788D01*
X41647055Y-32068753D01*
X41725226Y-32071882D01*
X41773537Y-32080187D01*
X41781111Y-32085962D01*
X41772410Y-32114784D01*
X41747911Y-32189915D01*
X41710020Y-32304233D01*
X41661142Y-32450618D01*
X41603684Y-32621950D01*
X41540050Y-32811107D01*
X41472648Y-33010969D01*
X41403882Y-33214417D01*
X41336158Y-33414328D01*
X41271883Y-33603583D01*
X41213461Y-33775062D01*
X41163299Y-33921643D01*
X41123802Y-34036207D01*
X41097377Y-34111632D01*
X41088572Y-34135722D01*
X41066677Y-34163713D01*
X41019621Y-34178966D01*
X40934322Y-34184731D01*
X40889905Y-34185111D01*
X40710293Y-34185111D01*
X40963480Y-33447407D01*
X41029676Y-33253609D01*
X41089413Y-33076948D01*
X41140332Y-32924542D01*
X41180075Y-32803511D01*
X41206283Y-32720971D01*
X41216598Y-32684042D01*
X41216666Y-32683225D01*
X41197402Y-32686680D01*
X41146682Y-32720598D01*
X41075116Y-32777802D01*
X41068500Y-32783432D01*
X40982909Y-32863238D01*
X40925070Y-32939138D01*
X40879971Y-33033831D01*
X40852422Y-33110170D01*
X40784511Y-33310222D01*
X40602458Y-33310222D01*
X40499379Y-33307056D01*
X40445318Y-33296567D01*
X40433152Y-33277261D01*
X40433905Y-33274944D01*
X40449245Y-33230317D01*
X40475090Y-33151023D01*
X40498708Y-33076802D01*
X40526170Y-32985163D01*
X40535567Y-32924339D01*
X40525824Y-32871315D01*
X40495863Y-32803080D01*
X40484855Y-32780469D01*
X40419699Y-32647000D01*
X39904333Y-34171000D01*
X39727944Y-34179402D01*
X39636658Y-34180326D01*
X39572925Y-34174429D01*
X39551555Y-34164238D01*
X39560345Y-34133113D01*
X39585399Y-34054510D01*
X39624746Y-33934365D01*
X39676415Y-33778616D01*
X39738433Y-33593201D01*
X39808829Y-33384059D01*
X39885631Y-33157127D01*
X39901082Y-33111613D01*
X40250609Y-32082555D01*
X40532573Y-32065729D01*
X40692273Y-32318828D01*
G37*
X40692273Y-32318828D02*
X40851974Y-32571927D01*
X41182487Y-32320495D01*
X41313067Y-32222064D01*
X41408972Y-32153242D01*
X41479915Y-32108766D01*
X41535605Y-32083373D01*
X41585753Y-32071801D01*
X41640072Y-32068788D01*
X41647055Y-32068753D01*
X41725226Y-32071882D01*
X41773537Y-32080187D01*
X41781111Y-32085962D01*
X41772410Y-32114784D01*
X41747911Y-32189915D01*
X41710020Y-32304233D01*
X41661142Y-32450618D01*
X41603684Y-32621950D01*
X41540050Y-32811107D01*
X41472648Y-33010969D01*
X41403882Y-33214417D01*
X41336158Y-33414328D01*
X41271883Y-33603583D01*
X41213461Y-33775062D01*
X41163299Y-33921643D01*
X41123802Y-34036207D01*
X41097377Y-34111632D01*
X41088572Y-34135722D01*
X41066677Y-34163713D01*
X41019621Y-34178966D01*
X40934322Y-34184731D01*
X40889905Y-34185111D01*
X40710293Y-34185111D01*
X40963480Y-33447407D01*
X41029676Y-33253609D01*
X41089413Y-33076948D01*
X41140332Y-32924542D01*
X41180075Y-32803511D01*
X41206283Y-32720971D01*
X41216598Y-32684042D01*
X41216666Y-32683225D01*
X41197402Y-32686680D01*
X41146682Y-32720598D01*
X41075116Y-32777802D01*
X41068500Y-32783432D01*
X40982909Y-32863238D01*
X40925070Y-32939138D01*
X40879971Y-33033831D01*
X40852422Y-33110170D01*
X40784511Y-33310222D01*
X40602458Y-33310222D01*
X40499379Y-33307056D01*
X40445318Y-33296567D01*
X40433152Y-33277261D01*
X40433905Y-33274944D01*
X40449245Y-33230317D01*
X40475090Y-33151023D01*
X40498708Y-33076802D01*
X40526170Y-32985163D01*
X40535567Y-32924339D01*
X40525824Y-32871315D01*
X40495863Y-32803080D01*
X40484855Y-32780469D01*
X40419699Y-32647000D01*
X39904333Y-34171000D01*
X39727944Y-34179402D01*
X39636658Y-34180326D01*
X39572925Y-34174429D01*
X39551555Y-34164238D01*
X39560345Y-34133113D01*
X39585399Y-34054510D01*
X39624746Y-33934365D01*
X39676415Y-33778616D01*
X39738433Y-33593201D01*
X39808829Y-33384059D01*
X39885631Y-33157127D01*
X39901082Y-33111613D01*
X40250609Y-32082555D01*
X40532573Y-32065729D01*
X40692273Y-32318828D01*
G36*
X39970447Y-32237777D02*
G01*
X39913262Y-32407111D01*
X39340753Y-32407111D01*
X39130049Y-32408120D01*
X38970494Y-32411355D01*
X38856826Y-32417125D01*
X38783783Y-32425738D01*
X38746102Y-32437504D01*
X38740323Y-32442388D01*
X38718206Y-32485479D01*
X38686179Y-32565817D01*
X38650867Y-32666681D01*
X38648071Y-32675222D01*
X38614805Y-32776776D01*
X38587418Y-32859294D01*
X38571422Y-32906178D01*
X38570739Y-32908055D01*
X38578251Y-32921945D01*
X38616726Y-32931908D01*
X38692361Y-32938454D01*
X38811351Y-32942089D01*
X38979894Y-32943322D01*
X39001222Y-32943333D01*
X39175356Y-32944333D01*
X39299275Y-32947672D01*
X39379180Y-32953859D01*
X39421268Y-32963403D01*
X39431742Y-32976812D01*
X39431205Y-32978611D01*
X39414671Y-33023656D01*
X39386637Y-33101640D01*
X39365117Y-33162055D01*
X39312529Y-33310222D01*
X38435757Y-33310222D01*
X38345646Y-33564222D01*
X38255536Y-33818222D01*
X39433553Y-33818222D01*
X39373911Y-34001666D01*
X39314269Y-34185111D01*
X37775461Y-34185111D01*
X38134342Y-33126891D01*
X38493222Y-32068672D01*
X40027632Y-32068444D01*
X39970447Y-32237777D01*
G37*
X39970447Y-32237777D02*
X39913262Y-32407111D01*
X39340753Y-32407111D01*
X39130049Y-32408120D01*
X38970494Y-32411355D01*
X38856826Y-32417125D01*
X38783783Y-32425738D01*
X38746102Y-32437504D01*
X38740323Y-32442388D01*
X38718206Y-32485479D01*
X38686179Y-32565817D01*
X38650867Y-32666681D01*
X38648071Y-32675222D01*
X38614805Y-32776776D01*
X38587418Y-32859294D01*
X38571422Y-32906178D01*
X38570739Y-32908055D01*
X38578251Y-32921945D01*
X38616726Y-32931908D01*
X38692361Y-32938454D01*
X38811351Y-32942089D01*
X38979894Y-32943322D01*
X39001222Y-32943333D01*
X39175356Y-32944333D01*
X39299275Y-32947672D01*
X39379180Y-32953859D01*
X39421268Y-32963403D01*
X39431742Y-32976812D01*
X39431205Y-32978611D01*
X39414671Y-33023656D01*
X39386637Y-33101640D01*
X39365117Y-33162055D01*
X39312529Y-33310222D01*
X38435757Y-33310222D01*
X38345646Y-33564222D01*
X38255536Y-33818222D01*
X39433553Y-33818222D01*
X39373911Y-34001666D01*
X39314269Y-34185111D01*
X37775461Y-34185111D01*
X38134342Y-33126891D01*
X38493222Y-32068672D01*
X40027632Y-32068444D01*
X39970447Y-32237777D01*
G36*
X37694335Y-32069109D02*
G01*
X37874919Y-32070983D01*
X38028393Y-32073887D01*
X38147472Y-32077643D01*
X38224873Y-32082071D01*
X38253312Y-32086991D01*
X38253333Y-32087130D01*
X38245463Y-32122396D01*
X38225189Y-32193499D01*
X38206131Y-32255558D01*
X38158929Y-32405300D01*
X37860409Y-32413261D01*
X37561888Y-32421222D01*
X37264317Y-33296111D01*
X36966745Y-34171000D01*
X36791595Y-34179402D01*
X36698236Y-34179890D01*
X36635447Y-34172359D01*
X36616444Y-34160709D01*
X36625270Y-34128200D01*
X36650268Y-34049037D01*
X36689214Y-33929929D01*
X36739885Y-33777585D01*
X36800059Y-33598715D01*
X36867514Y-33400028D01*
X36898666Y-33308820D01*
X36968694Y-33102959D01*
X37032391Y-32913390D01*
X37087525Y-32746940D01*
X37131864Y-32610436D01*
X37163177Y-32510705D01*
X37179232Y-32454575D01*
X37180888Y-32445568D01*
X37168165Y-32427199D01*
X37124474Y-32415425D01*
X37041535Y-32409110D01*
X36911068Y-32407118D01*
X36900517Y-32407111D01*
X36620145Y-32407111D01*
X36677330Y-32237777D01*
X36734515Y-32068444D01*
X37493924Y-32068444D01*
X37694335Y-32069109D01*
G37*
X37694335Y-32069109D02*
X37874919Y-32070983D01*
X38028393Y-32073887D01*
X38147472Y-32077643D01*
X38224873Y-32082071D01*
X38253312Y-32086991D01*
X38253333Y-32087130D01*
X38245463Y-32122396D01*
X38225189Y-32193499D01*
X38206131Y-32255558D01*
X38158929Y-32405300D01*
X37860409Y-32413261D01*
X37561888Y-32421222D01*
X37264317Y-33296111D01*
X36966745Y-34171000D01*
X36791595Y-34179402D01*
X36698236Y-34179890D01*
X36635447Y-34172359D01*
X36616444Y-34160709D01*
X36625270Y-34128200D01*
X36650268Y-34049037D01*
X36689214Y-33929929D01*
X36739885Y-33777585D01*
X36800059Y-33598715D01*
X36867514Y-33400028D01*
X36898666Y-33308820D01*
X36968694Y-33102959D01*
X37032391Y-32913390D01*
X37087525Y-32746940D01*
X37131864Y-32610436D01*
X37163177Y-32510705D01*
X37179232Y-32454575D01*
X37180888Y-32445568D01*
X37168165Y-32427199D01*
X37124474Y-32415425D01*
X37041535Y-32409110D01*
X36911068Y-32407118D01*
X36900517Y-32407111D01*
X36620145Y-32407111D01*
X36677330Y-32237777D01*
X36734515Y-32068444D01*
X37493924Y-32068444D01*
X37694335Y-32069109D01*
G36*
X36020373Y-32085844D02*
G01*
X36116847Y-32112895D01*
X36189487Y-32158568D01*
X36248940Y-32226180D01*
X36261957Y-32245319D01*
X36301663Y-32339420D01*
X36323340Y-32458105D01*
X36323716Y-32574028D01*
X36309150Y-32639944D01*
X36288187Y-32683148D01*
X36257428Y-32706400D01*
X36201086Y-32715826D01*
X36109142Y-32717555D01*
X35939111Y-32717555D01*
X35939111Y-32620793D01*
X35917868Y-32520956D01*
X35853303Y-32453262D01*
X35744162Y-32417146D01*
X35589189Y-32412042D01*
X35495196Y-32420809D01*
X35389421Y-32440182D01*
X35312924Y-32474523D01*
X35238576Y-32536687D01*
X35227440Y-32547696D01*
X35158593Y-32626815D01*
X35126709Y-32696176D01*
X35120666Y-32754968D01*
X35132032Y-32835789D01*
X35171124Y-32890983D01*
X35245435Y-32924559D01*
X35362455Y-32940528D01*
X35472668Y-32943377D01*
X35629459Y-32950091D01*
X35743166Y-32971370D01*
X35797437Y-32992766D01*
X35914515Y-33078487D01*
X35988373Y-33190834D01*
X36020977Y-33322613D01*
X36014298Y-33466629D01*
X35970302Y-33615688D01*
X35890960Y-33762593D01*
X35778238Y-33900151D01*
X35634106Y-34021166D01*
X35493661Y-34103105D01*
X35375971Y-34142961D01*
X35225741Y-34169580D01*
X35060498Y-34182328D01*
X34897768Y-34180570D01*
X34755078Y-34163671D01*
X34655000Y-34133469D01*
X34537911Y-34049427D01*
X34464841Y-33931645D01*
X34438768Y-33785137D01*
X34438848Y-33769709D01*
X34444030Y-33655249D01*
X34460818Y-33585936D01*
X34499549Y-33550487D01*
X34570561Y-33537620D01*
X34652988Y-33536000D01*
X34749325Y-33537080D01*
X34801188Y-33543747D01*
X34820547Y-33561144D01*
X34819372Y-33594409D01*
X34817139Y-33606503D01*
X34822624Y-33683403D01*
X34849926Y-33747614D01*
X34876219Y-33781855D01*
X34908988Y-33802778D01*
X34961601Y-33813638D01*
X35047421Y-33817691D01*
X35139820Y-33818222D01*
X35262859Y-33816456D01*
X35345745Y-33808853D01*
X35404717Y-33791952D01*
X35456017Y-33762295D01*
X35477865Y-33746207D01*
X35558954Y-33668016D01*
X35622154Y-33577221D01*
X35654889Y-33493072D01*
X35656888Y-33472240D01*
X35641212Y-33420297D01*
X35617302Y-33379761D01*
X35588667Y-33353369D01*
X35540697Y-33334642D01*
X35462121Y-33321008D01*
X35341665Y-33309899D01*
X35297062Y-33306768D01*
X35122606Y-33289930D01*
X34993991Y-33263357D01*
X34900847Y-33222481D01*
X34832807Y-33162734D01*
X34779504Y-33079550D01*
X34778978Y-33078521D01*
X34735586Y-32934470D01*
X34740784Y-32778604D01*
X34790371Y-32619076D01*
X34880143Y-32464039D01*
X35005897Y-32321645D01*
X35163428Y-32200047D01*
X35259645Y-32146190D01*
X35328927Y-32116689D01*
X35404006Y-32096831D01*
X35499310Y-32084329D01*
X35629265Y-32076900D01*
X35713333Y-32074332D01*
X35889417Y-32074096D01*
X36020373Y-32085844D01*
G37*
X36020373Y-32085844D02*
X36116847Y-32112895D01*
X36189487Y-32158568D01*
X36248940Y-32226180D01*
X36261957Y-32245319D01*
X36301663Y-32339420D01*
X36323340Y-32458105D01*
X36323716Y-32574028D01*
X36309150Y-32639944D01*
X36288187Y-32683148D01*
X36257428Y-32706400D01*
X36201086Y-32715826D01*
X36109142Y-32717555D01*
X35939111Y-32717555D01*
X35939111Y-32620793D01*
X35917868Y-32520956D01*
X35853303Y-32453262D01*
X35744162Y-32417146D01*
X35589189Y-32412042D01*
X35495196Y-32420809D01*
X35389421Y-32440182D01*
X35312924Y-32474523D01*
X35238576Y-32536687D01*
X35227440Y-32547696D01*
X35158593Y-32626815D01*
X35126709Y-32696176D01*
X35120666Y-32754968D01*
X35132032Y-32835789D01*
X35171124Y-32890983D01*
X35245435Y-32924559D01*
X35362455Y-32940528D01*
X35472668Y-32943377D01*
X35629459Y-32950091D01*
X35743166Y-32971370D01*
X35797437Y-32992766D01*
X35914515Y-33078487D01*
X35988373Y-33190834D01*
X36020977Y-33322613D01*
X36014298Y-33466629D01*
X35970302Y-33615688D01*
X35890960Y-33762593D01*
X35778238Y-33900151D01*
X35634106Y-34021166D01*
X35493661Y-34103105D01*
X35375971Y-34142961D01*
X35225741Y-34169580D01*
X35060498Y-34182328D01*
X34897768Y-34180570D01*
X34755078Y-34163671D01*
X34655000Y-34133469D01*
X34537911Y-34049427D01*
X34464841Y-33931645D01*
X34438768Y-33785137D01*
X34438848Y-33769709D01*
X34444030Y-33655249D01*
X34460818Y-33585936D01*
X34499549Y-33550487D01*
X34570561Y-33537620D01*
X34652988Y-33536000D01*
X34749325Y-33537080D01*
X34801188Y-33543747D01*
X34820547Y-33561144D01*
X34819372Y-33594409D01*
X34817139Y-33606503D01*
X34822624Y-33683403D01*
X34849926Y-33747614D01*
X34876219Y-33781855D01*
X34908988Y-33802778D01*
X34961601Y-33813638D01*
X35047421Y-33817691D01*
X35139820Y-33818222D01*
X35262859Y-33816456D01*
X35345745Y-33808853D01*
X35404717Y-33791952D01*
X35456017Y-33762295D01*
X35477865Y-33746207D01*
X35558954Y-33668016D01*
X35622154Y-33577221D01*
X35654889Y-33493072D01*
X35656888Y-33472240D01*
X35641212Y-33420297D01*
X35617302Y-33379761D01*
X35588667Y-33353369D01*
X35540697Y-33334642D01*
X35462121Y-33321008D01*
X35341665Y-33309899D01*
X35297062Y-33306768D01*
X35122606Y-33289930D01*
X34993991Y-33263357D01*
X34900847Y-33222481D01*
X34832807Y-33162734D01*
X34779504Y-33079550D01*
X34778978Y-33078521D01*
X34735586Y-32934470D01*
X34740784Y-32778604D01*
X34790371Y-32619076D01*
X34880143Y-32464039D01*
X35005897Y-32321645D01*
X35163428Y-32200047D01*
X35259645Y-32146190D01*
X35328927Y-32116689D01*
X35404006Y-32096831D01*
X35499310Y-32084329D01*
X35629265Y-32076900D01*
X35713333Y-32074332D01*
X35889417Y-32074096D01*
X36020373Y-32085844D01*
G36*
X34602485Y-32483553D02*
G01*
X34461808Y-32901000D01*
X33668876Y-33493666D01*
X33556006Y-33839388D01*
X33443136Y-34185111D01*
X33265901Y-34185111D01*
X33174271Y-34181359D01*
X33110244Y-34171570D01*
X33088666Y-34159234D01*
X33097710Y-34123906D01*
X33122322Y-34046952D01*
X33158729Y-33939771D01*
X33202439Y-33815754D01*
X33316212Y-33498150D01*
X33120882Y-33203705D01*
X32925552Y-32909259D01*
X33066013Y-32488852D01*
X33206474Y-32068444D01*
X33389811Y-32068444D01*
X33493020Y-32071524D01*
X33547287Y-32081767D01*
X33559828Y-32100680D01*
X33558824Y-32103722D01*
X33544514Y-32143302D01*
X33516420Y-32224280D01*
X33478712Y-32334540D01*
X33439054Y-32451611D01*
X33333607Y-32764223D01*
X33598035Y-33172987D01*
X33717295Y-33085355D01*
X33865974Y-32976025D01*
X33977071Y-32891755D01*
X34057995Y-32823518D01*
X34116152Y-32762288D01*
X34158950Y-32699037D01*
X34193798Y-32624737D01*
X34228101Y-32530363D01*
X34266007Y-32416670D01*
X34377276Y-32082555D01*
X34743162Y-32066107D01*
X34602485Y-32483553D01*
G37*
X34602485Y-32483553D02*
X34461808Y-32901000D01*
X33668876Y-33493666D01*
X33556006Y-33839388D01*
X33443136Y-34185111D01*
X33265901Y-34185111D01*
X33174271Y-34181359D01*
X33110244Y-34171570D01*
X33088666Y-34159234D01*
X33097710Y-34123906D01*
X33122322Y-34046952D01*
X33158729Y-33939771D01*
X33202439Y-33815754D01*
X33316212Y-33498150D01*
X33120882Y-33203705D01*
X32925552Y-32909259D01*
X33066013Y-32488852D01*
X33206474Y-32068444D01*
X33389811Y-32068444D01*
X33493020Y-32071524D01*
X33547287Y-32081767D01*
X33559828Y-32100680D01*
X33558824Y-32103722D01*
X33544514Y-32143302D01*
X33516420Y-32224280D01*
X33478712Y-32334540D01*
X33439054Y-32451611D01*
X33333607Y-32764223D01*
X33598035Y-33172987D01*
X33717295Y-33085355D01*
X33865974Y-32976025D01*
X33977071Y-32891755D01*
X34057995Y-32823518D01*
X34116152Y-32762288D01*
X34158950Y-32699037D01*
X34193798Y-32624737D01*
X34228101Y-32530363D01*
X34266007Y-32416670D01*
X34377276Y-32082555D01*
X34743162Y-32066107D01*
X34602485Y-32483553D01*
G36*
X32425952Y-32072228D02*
G01*
X32509448Y-32084144D01*
X32573813Y-32107339D01*
X32631432Y-32144153D01*
X32662648Y-32169293D01*
X32749125Y-32277613D01*
X32794587Y-32417280D01*
X32795667Y-32577585D01*
X32794229Y-32587746D01*
X32774763Y-32717555D01*
X32411333Y-32717555D01*
X32411333Y-32608122D01*
X32402815Y-32529972D01*
X32381762Y-32475693D01*
X32376055Y-32469536D01*
X32302649Y-32435889D01*
X32190531Y-32416566D01*
X32056060Y-32413518D01*
X31967418Y-32420809D01*
X31861644Y-32440182D01*
X31785146Y-32474523D01*
X31710798Y-32536687D01*
X31699662Y-32547696D01*
X31630815Y-32626815D01*
X31598931Y-32696176D01*
X31592888Y-32754968D01*
X31604641Y-32836531D01*
X31644841Y-32892030D01*
X31720904Y-32925505D01*
X31840245Y-32940992D01*
X31938741Y-32943333D01*
X32110361Y-32952162D01*
X32240527Y-32981580D01*
X32341858Y-33035988D01*
X32419706Y-33110994D01*
X32480951Y-33225307D01*
X32500088Y-33363557D01*
X32479649Y-33515139D01*
X32422168Y-33669445D01*
X32330178Y-33815871D01*
X32224571Y-33928135D01*
X32094987Y-34031167D01*
X31970719Y-34101748D01*
X31835260Y-34145842D01*
X31672106Y-34169411D01*
X31536444Y-34176773D01*
X31368551Y-34178332D01*
X31248344Y-34170466D01*
X31167753Y-34152546D01*
X31154045Y-34146969D01*
X31078364Y-34098683D01*
X31003063Y-34030177D01*
X30991767Y-34017353D01*
X30943249Y-33946887D01*
X30920626Y-33870653D01*
X30915555Y-33776031D01*
X30918176Y-33659760D01*
X30932559Y-33588761D01*
X30968484Y-33551896D01*
X31035732Y-33538027D01*
X31126328Y-33536000D01*
X31222281Y-33537096D01*
X31273792Y-33543844D01*
X31292859Y-33561433D01*
X31291481Y-33595052D01*
X31289361Y-33606503D01*
X31294847Y-33683403D01*
X31322148Y-33747614D01*
X31347856Y-33781298D01*
X31379756Y-33802132D01*
X31430861Y-33813185D01*
X31514183Y-33817523D01*
X31621680Y-33818222D01*
X31742880Y-33817376D01*
X31823395Y-33811944D01*
X31878984Y-33797586D01*
X31925407Y-33769962D01*
X31978424Y-33724731D01*
X31986021Y-33717874D01*
X32078197Y-33611595D01*
X32118798Y-33508067D01*
X32106406Y-33411815D01*
X32090812Y-33382975D01*
X32066001Y-33352196D01*
X32031978Y-33331932D01*
X31976597Y-33319242D01*
X31887715Y-33311189D01*
X31770818Y-33305550D01*
X31597115Y-33292410D01*
X31468639Y-33266088D01*
X31374775Y-33221613D01*
X31304907Y-33154016D01*
X31250077Y-33061771D01*
X31207846Y-32912174D01*
X31217566Y-32752028D01*
X31277331Y-32587679D01*
X31385234Y-32425473D01*
X31468091Y-32335879D01*
X31593394Y-32227216D01*
X31717158Y-32152385D01*
X31854961Y-32105396D01*
X32022379Y-32080259D01*
X32152031Y-32072880D01*
X32310941Y-32069252D01*
X32425952Y-32072228D01*
G37*
X32425952Y-32072228D02*
X32509448Y-32084144D01*
X32573813Y-32107339D01*
X32631432Y-32144153D01*
X32662648Y-32169293D01*
X32749125Y-32277613D01*
X32794587Y-32417280D01*
X32795667Y-32577585D01*
X32794229Y-32587746D01*
X32774763Y-32717555D01*
X32411333Y-32717555D01*
X32411333Y-32608122D01*
X32402815Y-32529972D01*
X32381762Y-32475693D01*
X32376055Y-32469536D01*
X32302649Y-32435889D01*
X32190531Y-32416566D01*
X32056060Y-32413518D01*
X31967418Y-32420809D01*
X31861644Y-32440182D01*
X31785146Y-32474523D01*
X31710798Y-32536687D01*
X31699662Y-32547696D01*
X31630815Y-32626815D01*
X31598931Y-32696176D01*
X31592888Y-32754968D01*
X31604641Y-32836531D01*
X31644841Y-32892030D01*
X31720904Y-32925505D01*
X31840245Y-32940992D01*
X31938741Y-32943333D01*
X32110361Y-32952162D01*
X32240527Y-32981580D01*
X32341858Y-33035988D01*
X32419706Y-33110994D01*
X32480951Y-33225307D01*
X32500088Y-33363557D01*
X32479649Y-33515139D01*
X32422168Y-33669445D01*
X32330178Y-33815871D01*
X32224571Y-33928135D01*
X32094987Y-34031167D01*
X31970719Y-34101748D01*
X31835260Y-34145842D01*
X31672106Y-34169411D01*
X31536444Y-34176773D01*
X31368551Y-34178332D01*
X31248344Y-34170466D01*
X31167753Y-34152546D01*
X31154045Y-34146969D01*
X31078364Y-34098683D01*
X31003063Y-34030177D01*
X30991767Y-34017353D01*
X30943249Y-33946887D01*
X30920626Y-33870653D01*
X30915555Y-33776031D01*
X30918176Y-33659760D01*
X30932559Y-33588761D01*
X30968484Y-33551896D01*
X31035732Y-33538027D01*
X31126328Y-33536000D01*
X31222281Y-33537096D01*
X31273792Y-33543844D01*
X31292859Y-33561433D01*
X31291481Y-33595052D01*
X31289361Y-33606503D01*
X31294847Y-33683403D01*
X31322148Y-33747614D01*
X31347856Y-33781298D01*
X31379756Y-33802132D01*
X31430861Y-33813185D01*
X31514183Y-33817523D01*
X31621680Y-33818222D01*
X31742880Y-33817376D01*
X31823395Y-33811944D01*
X31878984Y-33797586D01*
X31925407Y-33769962D01*
X31978424Y-33724731D01*
X31986021Y-33717874D01*
X32078197Y-33611595D01*
X32118798Y-33508067D01*
X32106406Y-33411815D01*
X32090812Y-33382975D01*
X32066001Y-33352196D01*
X32031978Y-33331932D01*
X31976597Y-33319242D01*
X31887715Y-33311189D01*
X31770818Y-33305550D01*
X31597115Y-33292410D01*
X31468639Y-33266088D01*
X31374775Y-33221613D01*
X31304907Y-33154016D01*
X31250077Y-33061771D01*
X31207846Y-32912174D01*
X31217566Y-32752028D01*
X31277331Y-32587679D01*
X31385234Y-32425473D01*
X31468091Y-32335879D01*
X31593394Y-32227216D01*
X31717158Y-32152385D01*
X31854961Y-32105396D01*
X32022379Y-32080259D01*
X32152031Y-32072880D01*
X32310941Y-32069252D01*
X32425952Y-32072228D01*
G36*
X27426927Y-30907457D02*
G01*
X27509347Y-30923328D01*
X27799955Y-31013037D01*
X28065719Y-31145057D01*
X28300189Y-31314548D01*
X28496918Y-31516669D01*
X28649459Y-31746580D01*
X28675778Y-31798996D01*
X28759378Y-32026450D01*
X28794070Y-32246212D01*
X28782614Y-32452789D01*
X28727771Y-32640686D01*
X28632301Y-32804411D01*
X28498965Y-32938470D01*
X28330525Y-33037370D01*
X28129739Y-33095617D01*
X28018076Y-33107779D01*
X27832504Y-33104852D01*
X27674876Y-33070349D01*
X27523139Y-32998882D01*
X27490358Y-32978926D01*
X27381271Y-32910296D01*
X27652635Y-32712751D01*
X27758533Y-32632697D01*
X27845092Y-32561618D01*
X27903260Y-32507344D01*
X27924000Y-32478031D01*
X27900049Y-32444285D01*
X27841785Y-32412281D01*
X27835744Y-32410088D01*
X27786494Y-32398383D01*
X27728222Y-32398577D01*
X27648360Y-32412464D01*
X27534340Y-32441840D01*
X27455363Y-32464420D01*
X27331870Y-32500706D01*
X27226597Y-32532215D01*
X27152602Y-32555006D01*
X27125345Y-32564059D01*
X27083486Y-32555242D01*
X27021242Y-32516187D01*
X26990670Y-32490635D01*
X26801287Y-32330491D01*
X26631689Y-32211591D01*
X26484883Y-32135599D01*
X26363873Y-32104178D01*
X26300153Y-32108524D01*
X26235487Y-32147115D01*
X26213786Y-32216996D01*
X26233669Y-32314536D01*
X26293752Y-32436108D01*
X26392654Y-32578082D01*
X26528991Y-32736831D01*
X26546716Y-32755691D01*
X26737583Y-32957053D01*
X26668078Y-33293135D01*
X26638602Y-33441884D01*
X26621660Y-33546737D01*
X26616323Y-33618611D01*
X26621658Y-33668427D01*
X26633342Y-33700469D01*
X26669496Y-33756500D01*
X26700073Y-33782107D01*
X26726473Y-33763595D01*
X26774605Y-33705509D01*
X26837585Y-33616926D01*
X26907342Y-33508842D01*
X27082648Y-33225191D01*
X27275946Y-33404156D01*
X27495757Y-33577587D01*
X27726870Y-33703598D01*
X27963231Y-33780001D01*
X28198786Y-33804605D01*
X28348121Y-33791863D01*
X28499479Y-33760552D01*
X28620791Y-33717104D01*
X28738443Y-33650684D01*
X28807095Y-33603354D01*
X28882280Y-33550683D01*
X28921054Y-33529372D01*
X28932158Y-33536910D01*
X28924711Y-33569568D01*
X28899233Y-33636025D01*
X28860392Y-33721932D01*
X28847739Y-33747666D01*
X28674978Y-34030683D01*
X28462829Y-34276333D01*
X28216565Y-34481771D01*
X27941458Y-34644148D01*
X27642781Y-34760617D01*
X27325804Y-34828332D01*
X26995801Y-34844445D01*
X26837444Y-34833354D01*
X26527240Y-34771913D01*
X26228349Y-34658090D01*
X25947985Y-34495799D01*
X25693365Y-34288955D01*
X25544791Y-34132127D01*
X25360948Y-33874495D01*
X25224113Y-33591424D01*
X25134919Y-33289648D01*
X25093995Y-32975896D01*
X25101972Y-32656902D01*
X25159479Y-32339397D01*
X25267146Y-32030113D01*
X25334918Y-31890143D01*
X25434372Y-31735309D01*
X25569902Y-31569744D01*
X25727397Y-31408550D01*
X25892748Y-31266830D01*
X25969238Y-31211194D01*
X26091597Y-31137185D01*
X26238798Y-31061546D01*
X26381690Y-30999100D01*
X26400000Y-30992140D01*
X26634556Y-30926802D01*
X26897745Y-30890050D01*
X27168793Y-30883172D01*
X27426927Y-30907457D01*
G37*
X27426927Y-30907457D02*
X27509347Y-30923328D01*
X27799955Y-31013037D01*
X28065719Y-31145057D01*
X28300189Y-31314548D01*
X28496918Y-31516669D01*
X28649459Y-31746580D01*
X28675778Y-31798996D01*
X28759378Y-32026450D01*
X28794070Y-32246212D01*
X28782614Y-32452789D01*
X28727771Y-32640686D01*
X28632301Y-32804411D01*
X28498965Y-32938470D01*
X28330525Y-33037370D01*
X28129739Y-33095617D01*
X28018076Y-33107779D01*
X27832504Y-33104852D01*
X27674876Y-33070349D01*
X27523139Y-32998882D01*
X27490358Y-32978926D01*
X27381271Y-32910296D01*
X27652635Y-32712751D01*
X27758533Y-32632697D01*
X27845092Y-32561618D01*
X27903260Y-32507344D01*
X27924000Y-32478031D01*
X27900049Y-32444285D01*
X27841785Y-32412281D01*
X27835744Y-32410088D01*
X27786494Y-32398383D01*
X27728222Y-32398577D01*
X27648360Y-32412464D01*
X27534340Y-32441840D01*
X27455363Y-32464420D01*
X27331870Y-32500706D01*
X27226597Y-32532215D01*
X27152602Y-32555006D01*
X27125345Y-32564059D01*
X27083486Y-32555242D01*
X27021242Y-32516187D01*
X26990670Y-32490635D01*
X26801287Y-32330491D01*
X26631689Y-32211591D01*
X26484883Y-32135599D01*
X26363873Y-32104178D01*
X26300153Y-32108524D01*
X26235487Y-32147115D01*
X26213786Y-32216996D01*
X26233669Y-32314536D01*
X26293752Y-32436108D01*
X26392654Y-32578082D01*
X26528991Y-32736831D01*
X26546716Y-32755691D01*
X26737583Y-32957053D01*
X26668078Y-33293135D01*
X26638602Y-33441884D01*
X26621660Y-33546737D01*
X26616323Y-33618611D01*
X26621658Y-33668427D01*
X26633342Y-33700469D01*
X26669496Y-33756500D01*
X26700073Y-33782107D01*
X26726473Y-33763595D01*
X26774605Y-33705509D01*
X26837585Y-33616926D01*
X26907342Y-33508842D01*
X27082648Y-33225191D01*
X27275946Y-33404156D01*
X27495757Y-33577587D01*
X27726870Y-33703598D01*
X27963231Y-33780001D01*
X28198786Y-33804605D01*
X28348121Y-33791863D01*
X28499479Y-33760552D01*
X28620791Y-33717104D01*
X28738443Y-33650684D01*
X28807095Y-33603354D01*
X28882280Y-33550683D01*
X28921054Y-33529372D01*
X28932158Y-33536910D01*
X28924711Y-33569568D01*
X28899233Y-33636025D01*
X28860392Y-33721932D01*
X28847739Y-33747666D01*
X28674978Y-34030683D01*
X28462829Y-34276333D01*
X28216565Y-34481771D01*
X27941458Y-34644148D01*
X27642781Y-34760617D01*
X27325804Y-34828332D01*
X26995801Y-34844445D01*
X26837444Y-34833354D01*
X26527240Y-34771913D01*
X26228349Y-34658090D01*
X25947985Y-34495799D01*
X25693365Y-34288955D01*
X25544791Y-34132127D01*
X25360948Y-33874495D01*
X25224113Y-33591424D01*
X25134919Y-33289648D01*
X25093995Y-32975896D01*
X25101972Y-32656902D01*
X25159479Y-32339397D01*
X25267146Y-32030113D01*
X25334918Y-31890143D01*
X25434372Y-31735309D01*
X25569902Y-31569744D01*
X25727397Y-31408550D01*
X25892748Y-31266830D01*
X25969238Y-31211194D01*
X26091597Y-31137185D01*
X26238798Y-31061546D01*
X26381690Y-30999100D01*
X26400000Y-30992140D01*
X26634556Y-30926802D01*
X26897745Y-30890050D01*
X27168793Y-30883172D01*
X27426927Y-30907457D01*
D14*
%TO.C,J1*%
X51960000Y-20050000D02*
X51960000Y-22650000D01*
X44040000Y-22650000D02*
X44040000Y-20050000D01*
X51200000Y-24960000D02*
X50050000Y-24960000D01*
X50050000Y-24960000D02*
X50050000Y-25550000D01*
X50050000Y-25550000D02*
X49350000Y-25550000D01*
X45950000Y-24960000D02*
X44800000Y-24960000D01*
X51960000Y-17150000D02*
X51960000Y-15490000D01*
X51960000Y-15490000D02*
X44040000Y-15490000D01*
X44040000Y-15490000D02*
X44040000Y-17150000D01*
%TO.C,C1*%
X54490000Y-28415580D02*
X54490000Y-28134420D01*
X55510000Y-28415580D02*
X55510000Y-28134420D01*
%TO.C,C2*%
X58084420Y-37010000D02*
X58365580Y-37010000D01*
X58084420Y-35990000D02*
X58365580Y-35990000D01*
%TO.C,C3*%
X35440580Y-39915000D02*
X35159420Y-39915000D01*
X35440580Y-40935000D02*
X35159420Y-40935000D01*
%TO.C,C4*%
X35440580Y-42435000D02*
X35159420Y-42435000D01*
X35440580Y-41415000D02*
X35159420Y-41415000D01*
%TO.C,C5*%
X51510000Y-40640580D02*
X51510000Y-40359420D01*
X50490000Y-40640580D02*
X50490000Y-40359420D01*
%TO.C,C6*%
X44666780Y-34165000D02*
X44385620Y-34165000D01*
X44666780Y-33145000D02*
X44385620Y-33145000D01*
%TO.C,C7*%
X43762200Y-49300220D02*
X43762200Y-49581380D01*
X44782200Y-49300220D02*
X44782200Y-49581380D01*
%TO.C,C8*%
X34541170Y-45382581D02*
X34739981Y-45183770D01*
X35262419Y-46103830D02*
X35461230Y-45905019D01*
%TO.C,C9*%
X38902310Y-49798422D02*
X39101121Y-49599611D01*
X39623559Y-50519671D02*
X39822370Y-50320860D01*
%TO.C,D1*%
X32288748Y-17765000D02*
X32811252Y-17765000D01*
X32288748Y-19235000D02*
X32811252Y-19235000D01*
%TO.C,J2*%
X65330000Y-60070000D02*
X64000000Y-60070000D01*
X65330000Y-58740000D02*
X65330000Y-60070000D01*
X62730000Y-60070000D02*
X60130000Y-60070000D01*
X62730000Y-57470000D02*
X62730000Y-60070000D01*
X65330000Y-57470000D02*
X62730000Y-57470000D01*
X60130000Y-60070000D02*
X60130000Y-42170000D01*
X65330000Y-57470000D02*
X65330000Y-42170000D01*
X65330000Y-42170000D02*
X60130000Y-42170000D01*
%TO.C,J3*%
X27830000Y-42170000D02*
X22630000Y-42170000D01*
X27830000Y-57470000D02*
X27830000Y-42170000D01*
X22630000Y-60070000D02*
X22630000Y-42170000D01*
X27830000Y-57470000D02*
X25230000Y-57470000D01*
X25230000Y-57470000D02*
X25230000Y-60070000D01*
X25230000Y-60070000D02*
X22630000Y-60070000D01*
X27830000Y-58740000D02*
X27830000Y-60070000D01*
X27830000Y-60070000D02*
X26500000Y-60070000D01*
%TO.C,J4*%
X37130000Y-62670000D02*
X37130000Y-65330000D01*
X39730000Y-62670000D02*
X37130000Y-62670000D01*
X39730000Y-65330000D02*
X37130000Y-65330000D01*
X39730000Y-62670000D02*
X39730000Y-65330000D01*
X41000000Y-62670000D02*
X42330000Y-62670000D01*
X42330000Y-62670000D02*
X42330000Y-64000000D01*
%TO.C,J5*%
X34830000Y-62670000D02*
X34830000Y-64000000D01*
X33500000Y-62670000D02*
X34830000Y-62670000D01*
X32230000Y-62670000D02*
X32230000Y-65330000D01*
X32230000Y-65330000D02*
X29630000Y-65330000D01*
X32230000Y-62670000D02*
X29630000Y-62670000D01*
X29630000Y-62670000D02*
X29630000Y-65330000D01*
%TO.C,J6*%
X55130000Y-62670000D02*
X55130000Y-65330000D01*
X57730000Y-62670000D02*
X55130000Y-62670000D01*
X57730000Y-65330000D02*
X55130000Y-65330000D01*
X57730000Y-62670000D02*
X57730000Y-65330000D01*
X59000000Y-62670000D02*
X60330000Y-62670000D01*
X60330000Y-62670000D02*
X60330000Y-64000000D01*
%TO.C,J7*%
X24550000Y-21630000D02*
X24550000Y-26830000D01*
X34770000Y-21630000D02*
X24550000Y-21630000D01*
X37370000Y-26830000D02*
X24550000Y-26830000D01*
X34770000Y-21630000D02*
X34770000Y-24230000D01*
X34770000Y-24230000D02*
X37370000Y-24230000D01*
X37370000Y-24230000D02*
X37370000Y-26830000D01*
X36040000Y-21630000D02*
X37370000Y-21630000D01*
X37370000Y-21630000D02*
X37370000Y-22960000D01*
%TO.C,J8*%
X51910000Y-65330000D02*
X51910000Y-62670000D01*
X46770000Y-65330000D02*
X51910000Y-65330000D01*
X46770000Y-62670000D02*
X51910000Y-62670000D01*
X46770000Y-65330000D02*
X46770000Y-62670000D01*
X45500000Y-65330000D02*
X44170000Y-65330000D01*
X44170000Y-65330000D02*
X44170000Y-64000000D01*
%TO.C,JP1*%
X56670000Y-25830000D02*
X56670000Y-24500000D01*
X58000000Y-25830000D02*
X56670000Y-25830000D01*
X59270000Y-25830000D02*
X59270000Y-23170000D01*
X59270000Y-23170000D02*
X61870000Y-23170000D01*
X59270000Y-25830000D02*
X61870000Y-25830000D01*
X61870000Y-25830000D02*
X61870000Y-23170000D01*
%TO.C,JP2*%
X23950000Y-39300000D02*
X23950000Y-38700000D01*
X26050000Y-40000000D02*
X24650000Y-40000000D01*
X26750000Y-38700000D02*
X26750000Y-39300000D01*
X24650000Y-38000000D02*
X26050000Y-38000000D01*
X26050000Y-38000000D02*
G75*
G02*
X26750000Y-38700000I0J-700000D01*
G01*
X26750000Y-39300000D02*
G75*
G02*
X26050000Y-40000000I-700000J0D01*
G01*
X24650000Y-40000000D02*
G75*
G02*
X23950000Y-39300000I0J700000D01*
G01*
X23950000Y-38700000D02*
G75*
G02*
X24650000Y-38000000I700000J0D01*
G01*
%TO.C,R1*%
X46867542Y-31967700D02*
X47342058Y-31967700D01*
X46867542Y-30922700D02*
X47342058Y-30922700D01*
%TO.C,R2*%
X28912258Y-19022500D02*
X28437742Y-19022500D01*
X28912258Y-17977500D02*
X28437742Y-17977500D01*
%TO.C,R3*%
X36013658Y-37352500D02*
X35539142Y-37352500D01*
X36013658Y-36307500D02*
X35539142Y-36307500D01*
%TO.C,R4*%
X38789755Y-46301540D02*
X39125288Y-46637073D01*
X39528682Y-45562613D02*
X39864215Y-45898146D01*
%TO.C,R5*%
X29712742Y-60602500D02*
X30187258Y-60602500D01*
X29712742Y-61647500D02*
X30187258Y-61647500D01*
%TO.C,R6*%
X34537258Y-60627500D02*
X34062742Y-60627500D01*
X34537258Y-61672500D02*
X34062742Y-61672500D01*
%TO.C,U1*%
X62910000Y-34910000D02*
X62910000Y-33650000D01*
X62910000Y-28090000D02*
X62910000Y-29350000D01*
X59150000Y-34910000D02*
X62910000Y-34910000D01*
X56900000Y-28090000D02*
X62910000Y-28090000D01*
%TO.C,U2*%
X48667004Y-41051643D02*
X48985202Y-40733445D01*
X48985202Y-40733445D02*
X48667004Y-40415247D01*
X44198089Y-45520558D02*
X43879891Y-45838756D01*
X43879891Y-45838756D02*
X43561693Y-45520558D01*
X43561693Y-35946332D02*
X43879891Y-35628134D01*
X43879891Y-35628134D02*
X44198089Y-35946332D01*
X39092778Y-40415247D02*
X38774580Y-40733445D01*
X38774580Y-40733445D02*
X39092778Y-41051643D01*
X39092778Y-41051643D02*
X38180610Y-41963811D01*
%TO.C,Y1*%
X37011210Y-45198282D02*
X34677757Y-47531735D01*
X34677757Y-47531735D02*
X37506184Y-50360162D01*
%TO.C,J1*%
D10*
X47666666Y-26202380D02*
X47666666Y-26916666D01*
X47619047Y-27059523D01*
X47523809Y-27154761D01*
X47380952Y-27202380D01*
X47285714Y-27202380D01*
X48666666Y-27202380D02*
X48095238Y-27202380D01*
X48380952Y-27202380D02*
X48380952Y-26202380D01*
X48285714Y-26345238D01*
X48190476Y-26440476D01*
X48095238Y-26488095D01*
%TO.C,C1*%
X52833333Y-28632142D02*
X52785714Y-28679761D01*
X52642857Y-28727380D01*
X52547619Y-28727380D01*
X52404761Y-28679761D01*
X52309523Y-28584523D01*
X52261904Y-28489285D01*
X52214285Y-28298809D01*
X52214285Y-28155952D01*
X52261904Y-27965476D01*
X52309523Y-27870238D01*
X52404761Y-27775000D01*
X52547619Y-27727380D01*
X52642857Y-27727380D01*
X52785714Y-27775000D01*
X52833333Y-27822619D01*
X53785714Y-28727380D02*
X53214285Y-28727380D01*
X53500000Y-28727380D02*
X53500000Y-27727380D01*
X53404761Y-27870238D01*
X53309523Y-27965476D01*
X53214285Y-28013095D01*
%TO.C,C2*%
X57333333Y-38357142D02*
X57285714Y-38404761D01*
X57142857Y-38452380D01*
X57047619Y-38452380D01*
X56904761Y-38404761D01*
X56809523Y-38309523D01*
X56761904Y-38214285D01*
X56714285Y-38023809D01*
X56714285Y-37880952D01*
X56761904Y-37690476D01*
X56809523Y-37595238D01*
X56904761Y-37500000D01*
X57047619Y-37452380D01*
X57142857Y-37452380D01*
X57285714Y-37500000D01*
X57333333Y-37547619D01*
X57714285Y-37547619D02*
X57761904Y-37500000D01*
X57857142Y-37452380D01*
X58095238Y-37452380D01*
X58190476Y-37500000D01*
X58238095Y-37547619D01*
X58285714Y-37642857D01*
X58285714Y-37738095D01*
X58238095Y-37880952D01*
X57666666Y-38452380D01*
X58285714Y-38452380D01*
%TO.C,C3*%
X35133333Y-39357142D02*
X35085714Y-39404761D01*
X34942857Y-39452380D01*
X34847619Y-39452380D01*
X34704761Y-39404761D01*
X34609523Y-39309523D01*
X34561904Y-39214285D01*
X34514285Y-39023809D01*
X34514285Y-38880952D01*
X34561904Y-38690476D01*
X34609523Y-38595238D01*
X34704761Y-38500000D01*
X34847619Y-38452380D01*
X34942857Y-38452380D01*
X35085714Y-38500000D01*
X35133333Y-38547619D01*
X35466666Y-38452380D02*
X36085714Y-38452380D01*
X35752380Y-38833333D01*
X35895238Y-38833333D01*
X35990476Y-38880952D01*
X36038095Y-38928571D01*
X36085714Y-39023809D01*
X36085714Y-39261904D01*
X36038095Y-39357142D01*
X35990476Y-39404761D01*
X35895238Y-39452380D01*
X35609523Y-39452380D01*
X35514285Y-39404761D01*
X35466666Y-39357142D01*
%TO.C,C4*%
X35133333Y-43712142D02*
X35085714Y-43759761D01*
X34942857Y-43807380D01*
X34847619Y-43807380D01*
X34704761Y-43759761D01*
X34609523Y-43664523D01*
X34561904Y-43569285D01*
X34514285Y-43378809D01*
X34514285Y-43235952D01*
X34561904Y-43045476D01*
X34609523Y-42950238D01*
X34704761Y-42855000D01*
X34847619Y-42807380D01*
X34942857Y-42807380D01*
X35085714Y-42855000D01*
X35133333Y-42902619D01*
X35990476Y-43140714D02*
X35990476Y-43807380D01*
X35752380Y-42759761D02*
X35514285Y-43474047D01*
X36133333Y-43474047D01*
%TO.C,C5*%
X52833333Y-40857142D02*
X52785714Y-40904761D01*
X52642857Y-40952380D01*
X52547619Y-40952380D01*
X52404761Y-40904761D01*
X52309523Y-40809523D01*
X52261904Y-40714285D01*
X52214285Y-40523809D01*
X52214285Y-40380952D01*
X52261904Y-40190476D01*
X52309523Y-40095238D01*
X52404761Y-40000000D01*
X52547619Y-39952380D01*
X52642857Y-39952380D01*
X52785714Y-40000000D01*
X52833333Y-40047619D01*
X53738095Y-39952380D02*
X53261904Y-39952380D01*
X53214285Y-40428571D01*
X53261904Y-40380952D01*
X53357142Y-40333333D01*
X53595238Y-40333333D01*
X53690476Y-40380952D01*
X53738095Y-40428571D01*
X53785714Y-40523809D01*
X53785714Y-40761904D01*
X53738095Y-40857142D01*
X53690476Y-40904761D01*
X53595238Y-40952380D01*
X53357142Y-40952380D01*
X53261904Y-40904761D01*
X53214285Y-40857142D01*
%TO.C,C6*%
X44833333Y-32357142D02*
X44785714Y-32404761D01*
X44642857Y-32452380D01*
X44547619Y-32452380D01*
X44404761Y-32404761D01*
X44309523Y-32309523D01*
X44261904Y-32214285D01*
X44214285Y-32023809D01*
X44214285Y-31880952D01*
X44261904Y-31690476D01*
X44309523Y-31595238D01*
X44404761Y-31500000D01*
X44547619Y-31452380D01*
X44642857Y-31452380D01*
X44785714Y-31500000D01*
X44833333Y-31547619D01*
X45690476Y-31452380D02*
X45500000Y-31452380D01*
X45404761Y-31500000D01*
X45357142Y-31547619D01*
X45261904Y-31690476D01*
X45214285Y-31880952D01*
X45214285Y-32261904D01*
X45261904Y-32357142D01*
X45309523Y-32404761D01*
X45404761Y-32452380D01*
X45595238Y-32452380D01*
X45690476Y-32404761D01*
X45738095Y-32357142D01*
X45785714Y-32261904D01*
X45785714Y-32023809D01*
X45738095Y-31928571D01*
X45690476Y-31880952D01*
X45595238Y-31833333D01*
X45404761Y-31833333D01*
X45309523Y-31880952D01*
X45261904Y-31928571D01*
X45214285Y-32023809D01*
%TO.C,C7*%
X45833333Y-49857142D02*
X45785714Y-49904761D01*
X45642857Y-49952380D01*
X45547619Y-49952380D01*
X45404761Y-49904761D01*
X45309523Y-49809523D01*
X45261904Y-49714285D01*
X45214285Y-49523809D01*
X45214285Y-49380952D01*
X45261904Y-49190476D01*
X45309523Y-49095238D01*
X45404761Y-49000000D01*
X45547619Y-48952380D01*
X45642857Y-48952380D01*
X45785714Y-49000000D01*
X45833333Y-49047619D01*
X46166666Y-48952380D02*
X46833333Y-48952380D01*
X46404761Y-49952380D01*
%TO.C,C8*%
X33134687Y-47870390D02*
X33134687Y-47937733D01*
X33067343Y-48072420D01*
X33000000Y-48139764D01*
X32865312Y-48207107D01*
X32730625Y-48207107D01*
X32629610Y-48173436D01*
X32461251Y-48072420D01*
X32360236Y-47971405D01*
X32259221Y-47803046D01*
X32225549Y-47702031D01*
X32225549Y-47567344D01*
X32292893Y-47432657D01*
X32360236Y-47365313D01*
X32494923Y-47297970D01*
X32562267Y-47297970D01*
X33202030Y-47129611D02*
X33101015Y-47163283D01*
X33033671Y-47163283D01*
X32932656Y-47129611D01*
X32898984Y-47095939D01*
X32865312Y-46994924D01*
X32865312Y-46927581D01*
X32898984Y-46826565D01*
X33033671Y-46691878D01*
X33134687Y-46658207D01*
X33202030Y-46658207D01*
X33303045Y-46691878D01*
X33336717Y-46725550D01*
X33370389Y-46826565D01*
X33370389Y-46893909D01*
X33336717Y-46994924D01*
X33202030Y-47129611D01*
X33168358Y-47230626D01*
X33168358Y-47297970D01*
X33202030Y-47398985D01*
X33336717Y-47533672D01*
X33437732Y-47567344D01*
X33505076Y-47567344D01*
X33606091Y-47533672D01*
X33740778Y-47398985D01*
X33774450Y-47297970D01*
X33774450Y-47230626D01*
X33740778Y-47129611D01*
X33606091Y-46994924D01*
X33505076Y-46961252D01*
X33437732Y-46961252D01*
X33336717Y-46994924D01*
%TO.C,C9*%
X41634687Y-48370389D02*
X41634687Y-48437732D01*
X41567343Y-48572419D01*
X41500000Y-48639763D01*
X41365312Y-48707106D01*
X41230625Y-48707106D01*
X41129610Y-48673435D01*
X40961251Y-48572419D01*
X40860236Y-48471404D01*
X40759221Y-48303045D01*
X40725549Y-48202030D01*
X40725549Y-48067343D01*
X40792893Y-47932656D01*
X40860236Y-47865312D01*
X40994923Y-47797969D01*
X41062267Y-47797969D01*
X42038748Y-48101015D02*
X42173435Y-47966328D01*
X42207106Y-47865312D01*
X42207106Y-47797969D01*
X42173435Y-47629610D01*
X42072419Y-47461251D01*
X41803045Y-47191877D01*
X41702030Y-47158206D01*
X41634687Y-47158206D01*
X41533671Y-47191877D01*
X41398984Y-47326564D01*
X41365312Y-47427580D01*
X41365312Y-47494923D01*
X41398984Y-47595938D01*
X41567343Y-47764297D01*
X41668358Y-47797969D01*
X41735702Y-47797969D01*
X41836717Y-47764297D01*
X41971404Y-47629610D01*
X42005076Y-47528595D01*
X42005076Y-47461251D01*
X41971404Y-47360236D01*
%TO.C,D1*%
X31811904Y-20452380D02*
X31811904Y-19452380D01*
X32050000Y-19452380D01*
X32192857Y-19500000D01*
X32288095Y-19595238D01*
X32335714Y-19690476D01*
X32383333Y-19880952D01*
X32383333Y-20023809D01*
X32335714Y-20214285D01*
X32288095Y-20309523D01*
X32192857Y-20404761D01*
X32050000Y-20452380D01*
X31811904Y-20452380D01*
X33335714Y-20452380D02*
X32764285Y-20452380D01*
X33050000Y-20452380D02*
X33050000Y-19452380D01*
X32954761Y-19595238D01*
X32859523Y-19690476D01*
X32764285Y-19738095D01*
%TO.C,J2*%
X62396666Y-60522380D02*
X62396666Y-61236666D01*
X62349047Y-61379523D01*
X62253809Y-61474761D01*
X62110952Y-61522380D01*
X62015714Y-61522380D01*
X62825238Y-60617619D02*
X62872857Y-60570000D01*
X62968095Y-60522380D01*
X63206190Y-60522380D01*
X63301428Y-60570000D01*
X63349047Y-60617619D01*
X63396666Y-60712857D01*
X63396666Y-60808095D01*
X63349047Y-60950952D01*
X62777619Y-61522380D01*
X63396666Y-61522380D01*
%TO.C,J3*%
X24896666Y-60522380D02*
X24896666Y-61236666D01*
X24849047Y-61379523D01*
X24753809Y-61474761D01*
X24610952Y-61522380D01*
X24515714Y-61522380D01*
X25277619Y-60522380D02*
X25896666Y-60522380D01*
X25563333Y-60903333D01*
X25706190Y-60903333D01*
X25801428Y-60950952D01*
X25849047Y-60998571D01*
X25896666Y-61093809D01*
X25896666Y-61331904D01*
X25849047Y-61427142D01*
X25801428Y-61474761D01*
X25706190Y-61522380D01*
X25420476Y-61522380D01*
X25325238Y-61474761D01*
X25277619Y-61427142D01*
%TO.C,J4*%
X52666666Y-63452380D02*
X52666666Y-64166666D01*
X52619047Y-64309523D01*
X52523809Y-64404761D01*
X52380952Y-64452380D01*
X52285714Y-64452380D01*
X53571428Y-63785714D02*
X53571428Y-64452380D01*
X53333333Y-63404761D02*
X53095238Y-64119047D01*
X53714285Y-64119047D01*
%TO.C,J5*%
X35496666Y-63452380D02*
X35496666Y-64166666D01*
X35449047Y-64309523D01*
X35353809Y-64404761D01*
X35210952Y-64452380D01*
X35115714Y-64452380D01*
X36449047Y-63452380D02*
X35972857Y-63452380D01*
X35925238Y-63928571D01*
X35972857Y-63880952D01*
X36068095Y-63833333D01*
X36306190Y-63833333D01*
X36401428Y-63880952D01*
X36449047Y-63928571D01*
X36496666Y-64023809D01*
X36496666Y-64261904D01*
X36449047Y-64357142D01*
X36401428Y-64404761D01*
X36306190Y-64452380D01*
X36068095Y-64452380D01*
X35972857Y-64404761D01*
X35925238Y-64357142D01*
%TO.C,J6*%
X60996666Y-63452380D02*
X60996666Y-64166666D01*
X60949047Y-64309523D01*
X60853809Y-64404761D01*
X60710952Y-64452380D01*
X60615714Y-64452380D01*
X61901428Y-63452380D02*
X61710952Y-63452380D01*
X61615714Y-63500000D01*
X61568095Y-63547619D01*
X61472857Y-63690476D01*
X61425238Y-63880952D01*
X61425238Y-64261904D01*
X61472857Y-64357142D01*
X61520476Y-64404761D01*
X61615714Y-64452380D01*
X61806190Y-64452380D01*
X61901428Y-64404761D01*
X61949047Y-64357142D01*
X61996666Y-64261904D01*
X61996666Y-64023809D01*
X61949047Y-63928571D01*
X61901428Y-63880952D01*
X61806190Y-63833333D01*
X61615714Y-63833333D01*
X61520476Y-63880952D01*
X61472857Y-63928571D01*
X61425238Y-64023809D01*
%TO.C,J7*%
X23166666Y-25952380D02*
X23166666Y-26666666D01*
X23119047Y-26809523D01*
X23023809Y-26904761D01*
X22880952Y-26952380D01*
X22785714Y-26952380D01*
X23547619Y-25952380D02*
X24214285Y-25952380D01*
X23785714Y-26952380D01*
%TO.C,J8*%
X42836666Y-63452380D02*
X42836666Y-64166666D01*
X42789047Y-64309523D01*
X42693809Y-64404761D01*
X42550952Y-64452380D01*
X42455714Y-64452380D01*
X43455714Y-63880952D02*
X43360476Y-63833333D01*
X43312857Y-63785714D01*
X43265238Y-63690476D01*
X43265238Y-63642857D01*
X43312857Y-63547619D01*
X43360476Y-63500000D01*
X43455714Y-63452380D01*
X43646190Y-63452380D01*
X43741428Y-63500000D01*
X43789047Y-63547619D01*
X43836666Y-63642857D01*
X43836666Y-63690476D01*
X43789047Y-63785714D01*
X43741428Y-63833333D01*
X43646190Y-63880952D01*
X43455714Y-63880952D01*
X43360476Y-63928571D01*
X43312857Y-63976190D01*
X43265238Y-64071428D01*
X43265238Y-64261904D01*
X43312857Y-64357142D01*
X43360476Y-64404761D01*
X43455714Y-64452380D01*
X43646190Y-64452380D01*
X43741428Y-64404761D01*
X43789047Y-64357142D01*
X43836666Y-64261904D01*
X43836666Y-64071428D01*
X43789047Y-63976190D01*
X43741428Y-63928571D01*
X43646190Y-63880952D01*
%TO.C,JP1*%
X62666666Y-24452380D02*
X62666666Y-25166666D01*
X62619047Y-25309523D01*
X62523809Y-25404761D01*
X62380952Y-25452380D01*
X62285714Y-25452380D01*
X63142857Y-25452380D02*
X63142857Y-24452380D01*
X63523809Y-24452380D01*
X63619047Y-24500000D01*
X63666666Y-24547619D01*
X63714285Y-24642857D01*
X63714285Y-24785714D01*
X63666666Y-24880952D01*
X63619047Y-24928571D01*
X63523809Y-24976190D01*
X63142857Y-24976190D01*
X64666666Y-25452380D02*
X64095238Y-25452380D01*
X64380952Y-25452380D02*
X64380952Y-24452380D01*
X64285714Y-24595238D01*
X64190476Y-24690476D01*
X64095238Y-24738095D01*
%TO.C,JP2*%
X27166666Y-38452380D02*
X27166666Y-39166666D01*
X27119047Y-39309523D01*
X27023809Y-39404761D01*
X26880952Y-39452380D01*
X26785714Y-39452380D01*
X27642857Y-39452380D02*
X27642857Y-38452380D01*
X28023809Y-38452380D01*
X28119047Y-38500000D01*
X28166666Y-38547619D01*
X28214285Y-38642857D01*
X28214285Y-38785714D01*
X28166666Y-38880952D01*
X28119047Y-38928571D01*
X28023809Y-38976190D01*
X27642857Y-38976190D01*
X28595238Y-38547619D02*
X28642857Y-38500000D01*
X28738095Y-38452380D01*
X28976190Y-38452380D01*
X29071428Y-38500000D01*
X29119047Y-38547619D01*
X29166666Y-38642857D01*
X29166666Y-38738095D01*
X29119047Y-38880952D01*
X28547619Y-39452380D01*
X29166666Y-39452380D01*
%TO.C,R1*%
X46938133Y-30467580D02*
X46604800Y-29991390D01*
X46366704Y-30467580D02*
X46366704Y-29467580D01*
X46747657Y-29467580D01*
X46842895Y-29515200D01*
X46890514Y-29562819D01*
X46938133Y-29658057D01*
X46938133Y-29800914D01*
X46890514Y-29896152D01*
X46842895Y-29943771D01*
X46747657Y-29991390D01*
X46366704Y-29991390D01*
X47890514Y-30467580D02*
X47319085Y-30467580D01*
X47604800Y-30467580D02*
X47604800Y-29467580D01*
X47509561Y-29610438D01*
X47414323Y-29705676D01*
X47319085Y-29753295D01*
%TO.C,R2*%
X28508333Y-20382380D02*
X28175000Y-19906190D01*
X27936904Y-20382380D02*
X27936904Y-19382380D01*
X28317857Y-19382380D01*
X28413095Y-19430000D01*
X28460714Y-19477619D01*
X28508333Y-19572857D01*
X28508333Y-19715714D01*
X28460714Y-19810952D01*
X28413095Y-19858571D01*
X28317857Y-19906190D01*
X27936904Y-19906190D01*
X28889285Y-19477619D02*
X28936904Y-19430000D01*
X29032142Y-19382380D01*
X29270238Y-19382380D01*
X29365476Y-19430000D01*
X29413095Y-19477619D01*
X29460714Y-19572857D01*
X29460714Y-19668095D01*
X29413095Y-19810952D01*
X28841666Y-20382380D01*
X29460714Y-20382380D01*
%TO.C,R3*%
X35609733Y-35952380D02*
X35276400Y-35476190D01*
X35038304Y-35952380D02*
X35038304Y-34952380D01*
X35419257Y-34952380D01*
X35514495Y-35000000D01*
X35562114Y-35047619D01*
X35609733Y-35142857D01*
X35609733Y-35285714D01*
X35562114Y-35380952D01*
X35514495Y-35428571D01*
X35419257Y-35476190D01*
X35038304Y-35476190D01*
X35943066Y-34952380D02*
X36562114Y-34952380D01*
X36228780Y-35333333D01*
X36371638Y-35333333D01*
X36466876Y-35380952D01*
X36514495Y-35428571D01*
X36562114Y-35523809D01*
X36562114Y-35761904D01*
X36514495Y-35857142D01*
X36466876Y-35904761D01*
X36371638Y-35952380D01*
X36085923Y-35952380D01*
X35990685Y-35904761D01*
X35943066Y-35857142D01*
%TO.C,R4*%
X37562267Y-44202030D02*
X37663282Y-43629610D01*
X37158206Y-43797969D02*
X37865312Y-43090862D01*
X38134687Y-43360236D01*
X38168358Y-43461251D01*
X38168358Y-43528595D01*
X38134687Y-43629610D01*
X38033671Y-43730625D01*
X37932656Y-43764297D01*
X37865312Y-43764297D01*
X37764297Y-43730625D01*
X37494923Y-43461251D01*
X38639763Y-44336717D02*
X38168358Y-44808122D01*
X38740778Y-43898984D02*
X38067343Y-44235702D01*
X38505076Y-44673435D01*
%TO.C,R5*%
X28833333Y-60452380D02*
X28500000Y-59976190D01*
X28261904Y-60452380D02*
X28261904Y-59452380D01*
X28642857Y-59452380D01*
X28738095Y-59500000D01*
X28785714Y-59547619D01*
X28833333Y-59642857D01*
X28833333Y-59785714D01*
X28785714Y-59880952D01*
X28738095Y-59928571D01*
X28642857Y-59976190D01*
X28261904Y-59976190D01*
X29738095Y-59452380D02*
X29261904Y-59452380D01*
X29214285Y-59928571D01*
X29261904Y-59880952D01*
X29357142Y-59833333D01*
X29595238Y-59833333D01*
X29690476Y-59880952D01*
X29738095Y-59928571D01*
X29785714Y-60023809D01*
X29785714Y-60261904D01*
X29738095Y-60357142D01*
X29690476Y-60404761D01*
X29595238Y-60452380D01*
X29357142Y-60452380D01*
X29261904Y-60404761D01*
X29214285Y-60357142D01*
%TO.C,R6*%
X35333333Y-60452380D02*
X35000000Y-59976190D01*
X34761904Y-60452380D02*
X34761904Y-59452380D01*
X35142857Y-59452380D01*
X35238095Y-59500000D01*
X35285714Y-59547619D01*
X35333333Y-59642857D01*
X35333333Y-59785714D01*
X35285714Y-59880952D01*
X35238095Y-59928571D01*
X35142857Y-59976190D01*
X34761904Y-59976190D01*
X36190476Y-59452380D02*
X36000000Y-59452380D01*
X35904761Y-59500000D01*
X35857142Y-59547619D01*
X35761904Y-59690476D01*
X35714285Y-59880952D01*
X35714285Y-60261904D01*
X35761904Y-60357142D01*
X35809523Y-60404761D01*
X35904761Y-60452380D01*
X36095238Y-60452380D01*
X36190476Y-60404761D01*
X36238095Y-60357142D01*
X36285714Y-60261904D01*
X36285714Y-60023809D01*
X36238095Y-59928571D01*
X36190476Y-59880952D01*
X36095238Y-59833333D01*
X35904761Y-59833333D01*
X35809523Y-59880952D01*
X35761904Y-59928571D01*
X35714285Y-60023809D01*
%TO.C,U1*%
X62238095Y-26452380D02*
X62238095Y-27261904D01*
X62285714Y-27357142D01*
X62333333Y-27404761D01*
X62428571Y-27452380D01*
X62619047Y-27452380D01*
X62714285Y-27404761D01*
X62761904Y-27357142D01*
X62809523Y-27261904D01*
X62809523Y-26452380D01*
X63809523Y-27452380D02*
X63238095Y-27452380D01*
X63523809Y-27452380D02*
X63523809Y-26452380D01*
X63428571Y-26595238D01*
X63333333Y-26690476D01*
X63238095Y-26738095D01*
%TO.C,U2*%
X38817342Y-36748392D02*
X39389762Y-37320812D01*
X39490777Y-37354484D01*
X39558121Y-37354484D01*
X39659136Y-37320812D01*
X39793823Y-37186125D01*
X39827495Y-37085110D01*
X39827495Y-37017766D01*
X39793823Y-36916751D01*
X39221403Y-36344331D01*
X39591793Y-36108629D02*
X39591793Y-36041286D01*
X39625464Y-35940270D01*
X39793823Y-35771912D01*
X39894838Y-35738240D01*
X39962182Y-35738240D01*
X40063197Y-35771912D01*
X40130541Y-35839255D01*
X40197884Y-35973942D01*
X40197884Y-36782064D01*
X40635617Y-36344331D01*
%TO.C,Y1*%
X34146446Y-49319881D02*
X34483164Y-49656599D01*
X33540355Y-49185194D02*
X34146446Y-49319881D01*
X34011759Y-48713790D01*
X35324957Y-48814805D02*
X34920896Y-49218866D01*
X35122927Y-49016835D02*
X34415820Y-48309729D01*
X34449492Y-48478087D01*
X34449492Y-48612774D01*
X34415820Y-48713790D01*
%TD*%
M02*
