%TF.GenerationSoftware,KiCad,Pcbnew,(5.1.10)-1*%
%TF.CreationDate,2021-07-29T02:28:10+01:00*%
%TF.ProjectId,STM32_MSB,53544d33-325f-44d5-9342-2e6b69636164,rev?*%
%TF.SameCoordinates,Original*%
%TF.FileFunction,Soldermask,Bot*%
%TF.FilePolarity,Negative*%
%FSLAX46Y46*%
G04 Gerber Fmt 4.6, Leading zero omitted, Abs format (unit mm)*
G04 Created by KiCad (PCBNEW (5.1.10)-1) date 2021-07-29 02:28:10*
%MOMM*%
%LPD*%
G01*
G04 APERTURE LIST*
%ADD10C,0.900000*%
%ADD11O,1.700000X1.700000*%
%ADD12R,1.700000X1.700000*%
G04 APERTURE END LIST*
D10*
%TO.C,J1*%
X50200000Y-21500000D03*
X45800000Y-21500000D03*
%TD*%
D11*
%TO.C,J2*%
X61460000Y-43500000D03*
X64000000Y-43500000D03*
X61460000Y-46040000D03*
X64000000Y-46040000D03*
X61460000Y-48580000D03*
X64000000Y-48580000D03*
X61460000Y-51120000D03*
X64000000Y-51120000D03*
X61460000Y-53660000D03*
X64000000Y-53660000D03*
X61460000Y-56200000D03*
X64000000Y-56200000D03*
X61460000Y-58740000D03*
D12*
X64000000Y-58740000D03*
%TD*%
%TO.C,J3*%
X26500000Y-58740000D03*
D11*
X23960000Y-58740000D03*
X26500000Y-56200000D03*
X23960000Y-56200000D03*
X26500000Y-53660000D03*
X23960000Y-53660000D03*
X26500000Y-51120000D03*
X23960000Y-51120000D03*
X26500000Y-48580000D03*
X23960000Y-48580000D03*
X26500000Y-46040000D03*
X23960000Y-46040000D03*
X26500000Y-43500000D03*
X23960000Y-43500000D03*
%TD*%
D12*
%TO.C,J4*%
X41000000Y-64000000D03*
D11*
X38460000Y-64000000D03*
%TD*%
%TO.C,J5*%
X30960000Y-64000000D03*
D12*
X33500000Y-64000000D03*
%TD*%
%TO.C,J6*%
X59000000Y-64000000D03*
D11*
X56460000Y-64000000D03*
%TD*%
D12*
%TO.C,J7*%
X36040000Y-22960000D03*
D11*
X36040000Y-25500000D03*
X33500000Y-22960000D03*
X33500000Y-25500000D03*
X30960000Y-22960000D03*
X30960000Y-25500000D03*
X28420000Y-22960000D03*
X28420000Y-25500000D03*
X25880000Y-22960000D03*
X25880000Y-25500000D03*
%TD*%
D12*
%TO.C,J8*%
X45500000Y-64000000D03*
D11*
X48040000Y-64000000D03*
X50580000Y-64000000D03*
%TD*%
%TO.C,JP1*%
X60540000Y-24500000D03*
D12*
X58000000Y-24500000D03*
%TD*%
M02*
